<svg id="Layer_1" data-name="Layer 1" xmlns="http://www.w3.org/2000/svg" xmlns:xlink="http://www.w3.org/1999/xlink" viewBox="0 0 100 100"><defs><style>.cls-1{fill:#fff;}.cls-2{fill:url(#linear-gradient);}.cls-3{fill:url(#linear-gradient-2);}.cls-4{fill:url(#linear-gradient-3);}.cls-5{fill:url(#linear-gradient-4);}</style><linearGradient id="linear-gradient" x1="9.03" y1="81.2" x2="66.48" y2="111.75" gradientTransform="translate(0 -50)" gradientUnits="userSpaceOnUse"><stop offset="0" stop-color="#4caf50"/><stop offset="0.49" stop-color="#4aaf50"/><stop offset="0.67" stop-color="#43ad50"/><stop offset="0.79" stop-color="#38aa50"/><stop offset="0.89" stop-color="#27a550"/><stop offset="0.98" stop-color="#11a050"/><stop offset="1" stop-color="#0a9e50"/></linearGradient><linearGradient id="linear-gradient-2" x1="71.55" y1="145" x2="71.55" y2="80.21" gradientTransform="translate(0 -50)" gradientUnits="userSpaceOnUse"><stop offset="0" stop-color="#ffd747"/><stop offset="0.48" stop-color="#ffd645"/><stop offset="0.66" stop-color="#fed43e"/><stop offset="0.78" stop-color="#fccf33"/><stop offset="0.88" stop-color="#fac922"/><stop offset="0.96" stop-color="#f7c10c"/><stop offset="1" stop-color="#f5bc00"/></linearGradient><linearGradient id="linear-gradient-3" x1="77.29" y1="58.83" x2="22.04" y2="93.35" gradientTransform="translate(0 -50)" gradientUnits="userSpaceOnUse"><stop offset="0" stop-color="#f7572f"/><stop offset="0.52" stop-color="#f7552d"/><stop offset="0.71" stop-color="#f75026"/><stop offset="0.85" stop-color="#f7461b"/><stop offset="0.95" stop-color="#f7390a"/><stop offset="1" stop-color="#f73100"/></linearGradient><linearGradient id="linear-gradient-4" x1="38.86" y1="88.86" x2="61.14" y2="111.14" gradientTransform="translate(0 -50)" gradientUnits="userSpaceOnUse"><stop offset="0" stop-color="#2aa4f4"/><stop offset="1" stop-color="#007ad9"/></linearGradient></defs><path class="cls-1" d="M72.5,50A22.5,22.5,0,1,1,50,27.5,22.51,22.51,0,0,1,72.5,50Z"/><path class="cls-2" d="M66.49,61.72,48.13,95A45,45,0,0,1,50,5V29.75a20.25,20.25,0,1,0,16.49,32Z"/><path class="cls-3" d="M95,50A45,45,0,0,1,50,95H48.11L66.49,61.72A20,20,0,0,0,70.25,50,20.25,20.25,0,0,0,50,29.75V5A45.07,45.07,0,0,1,95,50Z"/><path class="cls-4" d="M90.14,29.75H50A20.25,20.25,0,0,0,29.75,50,19.94,19.94,0,0,0,32,59.29h0L12.11,25.84h0a44.94,44.94,0,0,1,78.08,3.91Z"/><path class="cls-5" d="M65.75,50A15.75,15.75,0,1,1,50,34.25,15.75,15.75,0,0,1,65.75,50Z"/></svg>