<svg id="Layer_1" data-name="Layer 1" xmlns="http://www.w3.org/2000/svg" xmlns:xlink="http://www.w3.org/1999/xlink" viewBox="0 0 100 100"><defs><style>.cls-1{fill:url(#linear-gradient);}.cls-2{fill:url(#radial-gradient);}.cls-3{fill:url(#radial-gradient-2);}.cls-4{fill:url(#radial-gradient-3);}.cls-5{fill:url(#radial-gradient-4);}.cls-6{fill:url(#radial-gradient-5);}.cls-7{fill:url(#radial-gradient-6);}.cls-8{fill:url(#radial-gradient-7);}.cls-9{fill:url(#radial-gradient-8);}.cls-10{fill:url(#radial-gradient-9);}.cls-11{fill:url(#radial-gradient-10);}.cls-12{fill:url(#linear-gradient-2);}</style><linearGradient id="linear-gradient" x1="2.05" y1="100.78" x2="1.17" y2="99.9" gradientTransform="matrix(77.42, 0, 0, -79.97, -76.42, 8077.84)" gradientUnits="userSpaceOnUse"><stop offset="0.05" stop-color="#fff44f"/><stop offset="0.11" stop-color="#ffe847"/><stop offset="0.23" stop-color="#ffc830"/><stop offset="0.37" stop-color="#ff980e"/><stop offset="0.4" stop-color="#ff8b16"/><stop offset="0.46" stop-color="#ff672a"/><stop offset="0.53" stop-color="#ff3647"/><stop offset="0.7" stop-color="#e31587"/></linearGradient><radialGradient id="radial-gradient" cx="2.02" cy="101" r="1.28" gradientTransform="matrix(71.56, 0, 0, -70.85, -62.92, 7170.52)" gradientUnits="userSpaceOnUse"><stop offset="0.13" stop-color="#ffbd4f"/><stop offset="0.19" stop-color="#ffac31"/><stop offset="0.25" stop-color="#ff9d17"/><stop offset="0.28" stop-color="#ff980e"/><stop offset="0.4" stop-color="#ff563b"/><stop offset="0.47" stop-color="#ff3750"/><stop offset="0.71" stop-color="#f5156c"/><stop offset="0.78" stop-color="#eb0878"/><stop offset="0.86" stop-color="#e50080"/></radialGradient><radialGradient id="radial-gradient-2" cx="1.64" cy="100.47" r="1.28" gradientTransform="matrix(71.56, 0, 0, -70.85, -69.19, 7170.52)" gradientUnits="userSpaceOnUse"><stop offset="0.3" stop-color="#960e18"/><stop offset="0.35" stop-color="#b11927" stop-opacity="0.74"/><stop offset="0.43" stop-color="#db293d" stop-opacity="0.34"/><stop offset="0.5" stop-color="#f5334b" stop-opacity="0.09"/><stop offset="0.53" stop-color="#ff3750" stop-opacity="0"/></radialGradient><radialGradient id="radial-gradient-3" cx="2.04" cy="100.85" r="3.15" gradientTransform="matrix(21.13, 0, 0, -20.92, 15.94, 2103.84)" gradientUnits="userSpaceOnUse"><stop offset="0.13" stop-color="#fff44f"/><stop offset="0.25" stop-color="#ffdc3e"/><stop offset="0.51" stop-color="#ff9d12"/><stop offset="0.53" stop-color="#ff980e"/></radialGradient><radialGradient id="radial-gradient-4" cx="1.49" cy="99.66" r="1.12" gradientTransform="matrix(39.13, 0, 0, -38.75, -20.35, 3937.34)" gradientUnits="userSpaceOnUse"><stop offset="0.35" stop-color="#3a8ee6"/><stop offset="0.47" stop-color="#5c79f0"/><stop offset="0.67" stop-color="#9059ff"/><stop offset="1" stop-color="#c139e6"/></radialGradient><radialGradient id="radial-gradient-5" cx="1.81" cy="100.33" r="0.59" gradientTransform="matrix(38.04, -9.11, -9.2, -37.66, 906.84, 3839.82)" gradientUnits="userSpaceOnUse"><stop offset="0.21" stop-color="#9059ff" stop-opacity="0"/><stop offset="0.28" stop-color="#8c4ff3" stop-opacity="0.06"/><stop offset="0.75" stop-color="#7716a8" stop-opacity="0.45"/><stop offset="0.97" stop-color="#6e008b" stop-opacity="0.6"/></radialGradient><radialGradient id="radial-gradient-6" cx="4.15" cy="101.16" r="2.93" gradientTransform="matrix(10.73, 0, 0, -10.62, 2.34, 1085.79)" gradientUnits="userSpaceOnUse"><stop offset="0" stop-color="#ffe226"/><stop offset="0.12" stop-color="#ffdb27"/><stop offset="0.29" stop-color="#ffc82a"/><stop offset="0.5" stop-color="#ffa930"/><stop offset="0.73" stop-color="#ff7e37"/><stop offset="0.79" stop-color="#ff7139"/></radialGradient><radialGradient id="radial-gradient-7" cx="1.96" cy="101.27" r="1.94" gradientTransform="matrix(69.26, 0, 0, -68.57, -64.07, 6936.29)" gradientUnits="userSpaceOnUse"><stop offset="0.11" stop-color="#fff44f"/><stop offset="0.46" stop-color="#ff980e"/><stop offset="0.62" stop-color="#ff5634"/><stop offset="0.72" stop-color="#ff3647"/><stop offset="0.9" stop-color="#e31587"/></radialGradient><radialGradient id="radial-gradient-8" cx="1.44" cy="101.47" r="3.49" gradientTransform="matrix(2.96, 27.77, 28.05, -2.93, -2790.5, 256.37)" gradientUnits="userSpaceOnUse"><stop offset="0" stop-color="#fff44f"/><stop offset="0.06" stop-color="#ffe847"/><stop offset="0.17" stop-color="#ffc830"/><stop offset="0.3" stop-color="#ff980e"/><stop offset="0.36" stop-color="#ff8b16"/><stop offset="0.46" stop-color="#ff672a"/><stop offset="0.57" stop-color="#ff3647"/><stop offset="0.74" stop-color="#e31587"/></radialGradient><radialGradient id="radial-gradient-9" cx="1.48" cy="101.16" r="2.39" gradientTransform="matrix(35.11, 0, 0, -34.76, -5.85, 3538.97)" gradientUnits="userSpaceOnUse"><stop offset="0.14" stop-color="#fff44f"/><stop offset="0.48" stop-color="#ff980e"/><stop offset="0.59" stop-color="#ff5634"/><stop offset="0.66" stop-color="#ff3647"/><stop offset="0.9" stop-color="#e31587"/></radialGradient><radialGradient id="radial-gradient-10" cx="2.95" cy="101.12" r="3.13" gradientTransform="matrix(29.32, 0, 0, -29.03, -18.1, 2963.05)" gradientUnits="userSpaceOnUse"><stop offset="0.09" stop-color="#fff44f"/><stop offset="0.23" stop-color="#ffe141"/><stop offset="0.51" stop-color="#ffaf1e"/><stop offset="0.63" stop-color="#ff980e"/></radialGradient><linearGradient id="linear-gradient-2" x1="2.04" y1="100.78" x2="1.29" y2="100.01" gradientTransform="matrix(77.42, 0, 0, -79.97, -76.42, 8077.84)" gradientUnits="userSpaceOnUse"><stop offset="0.17" stop-color="#fff44f" stop-opacity="0.8"/><stop offset="0.27" stop-color="#fff44f" stop-opacity="0.63"/><stop offset="0.49" stop-color="#fff44f" stop-opacity="0.22"/><stop offset="0.6" stop-color="#fff44f" stop-opacity="0"/></linearGradient></defs><g id="Page-1"><g id="Firefox_logo__2019" data-name="Firefox_logo,_2019"><path id="path980" class="cls-1" d="M90.81,35.19C88.9,30.63,85,25.71,82,24.15a45.1,45.1,0,0,1,4.46,13.24v.07c-5-12.29-13.43-17.25-20.33-28-.35-.55-.7-1.1-1-1.67q-.28-.5-.48-.9a7.72,7.72,0,0,1-.66-1.73.1.1,0,0,0-.1-.11H63.7l0,0C52.65,11.42,48.9,23.3,48.55,29.24a22.19,22.19,0,0,0-12.12,4.62A12.05,12.05,0,0,0,35.29,33a20.09,20.09,0,0,1-.12-10.66,32.65,32.65,0,0,0-10.6,8.11h0C22.8,28.27,22.92,21.05,23,19.54a7.63,7.63,0,0,0-1.47.77A31.91,31.91,0,0,0,17.25,24a38.36,38.36,0,0,0-4.12,4.89h0A36.75,36.75,0,0,0,7.22,42.07l-.06.29c-.08.38-.38,2.3-.43,2.72a.44.44,0,0,1,0,.1,41.76,41.76,0,0,0-.71,6v.23a44.09,44.09,0,0,0,87.47,7.37c.08-.56.14-1.12.2-1.69A44.35,44.35,0,0,0,90.81,35.19ZM40,69.34l.61.29,0,0L40,69.34Z"/><path id="path982" class="cls-2" d="M90.81,35.19C88.9,30.63,85,25.71,82,24.15a45.1,45.1,0,0,1,4.46,13.24v.09a39.2,39.2,0,0,1-1.37,29.44C80,77.64,67.8,88.64,48.67,88.1,28,87.53,9.8,72.34,6.4,52.45c-.62-3.14,0-4.73.31-7.28a32.13,32.13,0,0,0-.71,6v.23a44.09,44.09,0,0,0,87.47,7.37c.08-.56.14-1.12.2-1.69A44.35,44.35,0,0,0,90.81,35.19Z"/><path id="path984" class="cls-3" d="M90.81,35.19C88.9,30.63,85,25.71,82,24.15a45.1,45.1,0,0,1,4.46,13.24v.09a39.2,39.2,0,0,1-1.37,29.44C80,77.64,67.8,88.64,48.67,88.1,28,87.53,9.8,72.34,6.4,52.45c-.62-3.14,0-4.73.31-7.28a32.13,32.13,0,0,0-.71,6v.23a44.09,44.09,0,0,0,87.47,7.37c.08-.56.14-1.12.2-1.69A44.35,44.35,0,0,0,90.81,35.19Z"/><path id="path986" class="cls-4" d="M69.41,40.32l.27.2a24.08,24.08,0,0,0-4.09-5.29C51.9,21.68,62,5.83,63.7,5l0,0C52.65,11.42,48.9,23.3,48.55,29.24c.52,0,1-.08,1.55-.08A22.25,22.25,0,0,1,69.41,40.32Z"/><path id="path988" class="cls-5" d="M50.13,43c-.07,1.08-3.94,4.82-5.3,4.82-12.52,0-14.56,7.51-14.56,7.51.56,6.32,5,11.52,10.38,14.27.24.13.49.24.74.35.43.19.87.37,1.3.53a19.91,19.91,0,0,0,5.73,1.09c22,1,26.21-26,10.36-33.83a15.28,15.28,0,0,1,10.63,2.55A22.25,22.25,0,0,0,50.1,29.16c-.52,0-1,0-1.55.08a22.19,22.19,0,0,0-12.12,4.62c.67.57,1.43,1.32,3,2.88,3,2.91,10.65,5.93,10.67,6.29Z"/><path id="path990" class="cls-6" d="M50.13,43c-.07,1.08-3.94,4.82-5.3,4.82-12.52,0-14.56,7.51-14.56,7.51.56,6.32,5,11.52,10.38,14.27.24.13.49.24.74.35.43.19.87.37,1.3.53a19.91,19.91,0,0,0,5.73,1.09c22,1,26.21-26,10.36-33.83a15.28,15.28,0,0,1,10.63,2.55A22.25,22.25,0,0,0,50.1,29.16c-.52,0-1,0-1.55.08a22.19,22.19,0,0,0-12.12,4.62c.67.57,1.43,1.32,3,2.88,3,2.91,10.65,5.93,10.67,6.29Z"/><path id="path992" class="cls-7" d="M34.38,32.41l.91.6a20,20,0,0,1-.13-10.66,32.65,32.65,0,0,0-10.6,8.11c.21,0,6.6-.12,9.82,1.95Z"/><path id="path994" class="cls-8" d="M6.4,52.45C9.8,72.34,28,87.53,48.68,88.1c19.13.54,31.35-10.46,36.4-21.18a39.1,39.1,0,0,0,1.37-29.44v0s0,0,0,0v.07C88,47.57,82.83,57.36,74.72,64l0,.05c-15.8,12.75-30.93,7.7-34,5.63l-.64-.31C30.84,65,27,56.67,27.84,49.54A11.31,11.31,0,0,1,17.41,43a16.74,16.74,0,0,1,16.19-.65A22.15,22.15,0,0,0,50.15,43c0-.36-7.69-3.38-10.68-6.29-1.6-1.56-2.35-2.31-3-2.88A13.34,13.34,0,0,0,35.31,33l-.91-.6c-3.21-2.07-9.61-2-9.82-2h0c-1.74-2.19-1.62-9.41-1.52-10.92a7.35,7.35,0,0,0-1.47.77A32.63,32.63,0,0,0,17.26,24a39.19,39.19,0,0,0-4.13,4.88h0A36.75,36.75,0,0,0,7.22,42.07C7.2,42.16,5.63,48.93,6.4,52.45Z"/><path id="path996" class="cls-9" d="M65.59,35.23a23.78,23.78,0,0,1,4.09,5.29c.24.19.47.37.66.54,10,9.12,4.76,22,4.37,22.92C82.82,57.36,88,47.57,86.45,37.47c-5-12.3-13.43-17.26-20.33-28-.35-.55-.7-1.1-1-1.67q-.28-.5-.48-.9a7.72,7.72,0,0,1-.66-1.73.1.1,0,0,0-.1-.11H63.7c-1.7.8-11.8,16.65,1.89,30.2Z"/><path id="path998" class="cls-10" d="M70.34,41.05c-.2-.17-.42-.35-.66-.53l-.28-.2a15.25,15.25,0,0,0-10.62-2.55C74.62,45.61,70.37,72.62,48.41,71.6a20,20,0,0,1-5.73-1.09c-.43-.16-.86-.34-1.29-.53-.25-.11-.5-.22-.75-.35l0,0c3.06,2.07,18.18,7.13,34-5.63l0,0c.4-.91,5.63-13.8-4.36-22.92Z"/><path id="path1000" class="cls-11" d="M30.27,55.36s2-7.51,14.56-7.51c1.36,0,5.23-3.74,5.3-4.82a22.13,22.13,0,0,1-16.54-.65,16.76,16.76,0,0,0-16.2.65,11.34,11.34,0,0,0,10.44,6.5C27,56.66,30.82,65,40,69.33c.2.1.4.21.61.3-5.38-2.75-9.82-7.95-10.38-14.27Z"/><path id="path1002" class="cls-12" d="M90.81,35.19C88.9,30.63,85,25.71,82,24.15a45.1,45.1,0,0,1,4.46,13.24v.07c-5-12.29-13.43-17.25-20.33-28-.35-.55-.7-1.1-1-1.67q-.28-.5-.48-.9a7.72,7.72,0,0,1-.66-1.73.1.1,0,0,0-.1-.11H63.7l0,0C52.65,11.42,48.9,23.3,48.55,29.24c.52,0,1-.08,1.55-.08A22.25,22.25,0,0,1,69.41,40.32a15.28,15.28,0,0,0-10.63-2.55c15.85,7.84,11.6,34.85-10.36,33.83a19.91,19.91,0,0,1-5.73-1.09c-.43-.16-.87-.34-1.3-.53-.25-.11-.5-.22-.74-.35l0,0L40,69.34l.61.29c-5.38-2.75-9.82-7.95-10.38-14.27,0,0,2-7.51,14.56-7.51,1.36,0,5.23-3.74,5.3-4.82,0-.36-7.68-3.38-10.67-6.29-1.6-1.56-2.36-2.31-3-2.88A12.05,12.05,0,0,0,35.29,33a20.09,20.09,0,0,1-.12-10.66,32.65,32.65,0,0,0-10.6,8.11h0C22.8,28.27,22.92,21.05,23,19.54a7.63,7.63,0,0,0-1.47.77A31.91,31.91,0,0,0,17.25,24a38.36,38.36,0,0,0-4.12,4.89h0A36.75,36.75,0,0,0,7.22,42.07l-.06.29c-.08.38-.46,2.33-.51,2.75h0A49.55,49.55,0,0,0,6,51.19v.23a44.09,44.09,0,0,0,87.47,7.37c.08-.56.14-1.12.2-1.69A44.35,44.35,0,0,0,90.81,35.19Z"/></g></g></svg>