<?xml version="1.0" encoding="UTF-8" standalone="no"?>
<!-- pz info  -->
<svg xmlns="http://www.w3.org/2000/svg" id="pz-info-Group_822" data-name="Group 822" width="92.771" height="81.9" viewBox="0 0 92.771 81.9">
    <style>
@keyframes pz-info-a0_t { 0% { transform: translate(46.386px,40.9475px) rotate(0deg) scale(0.8,0.8) translate(-46.3753px,-40.9485px); } 60% { transform: translate(46.386px,40.9475px) rotate(0deg) scale(0.8,0.8) translate(-46.3753px,-40.9485px); } 70% { transform: translate(46.386px,40.9475px) rotate(2deg) scale(0.8,0.8) translate(-46.3753px,-40.9485px); } 80% { transform: translate(46.386px,40.9475px) rotate(0deg) scale(0.8,0.8) translate(-46.3753px,-40.9485px); } 90% { transform: translate(46.386px,40.9475px) rotate(-2deg) scale(0.8,0.8) translate(-46.3753px,-40.9485px); } 100% { transform: translate(46.386px,40.9475px) rotate(0deg) scale(0.8,0.8) translate(-46.3753px,-40.9485px); } }
@keyframes pz-info-Path_597_t { 0% { transform: translate(46.6019px,41.0613px) scale(0,0); } 50% { transform: translate(46.6019px,41.0613px) scale(1,1); } 100% { transform: translate(46.6019px,41.0613px) scale(1,1); } }
@keyframes pz-info-Path_597-2_t { 0% { transform: translate(46.6019px,41.0613px) scale(0,0); } 20% { transform: translate(46.6019px,41.0613px) scale(0,0); } 50% { transform: translate(46.6019px,41.0613px) scale(1,1); } 100% { transform: translate(46.6019px,41.0613px) scale(1,1); } }
@keyframes pz-info-Path_598_t { 0% { transform: translate(-483.66438px,-285.5707px); } 50% { transform: translate(-483.66438px,-285.5707px); } 60% { transform: translate(-483.66438px,-301.5707px); } 100% { transform: translate(-483.66438px,-301.5707px); } }
@keyframes pz-info-Path_598_o { 0% { opacity: 0; } 50% { opacity: 0; } 60% { opacity: 1; } 100% { opacity: 1; } }
@keyframes pz-info-Ellipse_72_t { 0% { transform: translate(4.168px,46.196px); } 60% { transform: translate(4.168px,46.196px); } 70% { transform: translate(4.168px,38.196px); } 100% { transform: translate(4.168px,38.196px); } }
@keyframes pz-info-Ellipse_72_o { 0% { opacity: 0; } 60% { opacity: 0; } 70% { opacity: 1; } 100% { opacity: 1; } }
    </style>
    <g transform="translate(46.386,40.9475) scale(0.8,0.8) translate(-46.3753,-40.9485)" style="animation: 1s linear both pz-info-a0_t;">
        <path id="pz-info-Path_597" data-name="Path 597" d="M37.1799,0C37.1799,20.5339,20.5339,37.1799,0,37.1799C-20.5339,37.1799,-37.1799,20.5339,-37.1799,0C-37.1799,-20.5339,-20.5339,-37.1799,0,-37.1799C20.5339,-37.1799,37.1799,-20.5339,37.1799,0Z" fill="#3498db" opacity="0.6" transform="translate(46.6019,41.0613) scale(0,0)" style="isolation: isolate; animation: 1s linear both pz-info-Path_597_t;"/>
        <path id="pz-info-Path_597-2" data-name="Path 597" d="M37.1799,0C37.1799,20.5339,20.5339,37.1799,0,37.1799C-20.5339,37.1799,-37.1799,20.5339,-37.1799,0C-37.1799,-20.5339,-20.5339,-37.1799,0,-37.1799C20.5339,-37.1799,37.1799,-20.5339,37.1799,0Z" fill="#0abde3" transform="translate(46.6019,41.0613) scale(0,0)" style="isolation: isolate; animation: 1s linear both pz-info-Path_597-2_t;"/>
        <g id="pz-info-Group_821" data-name="Group 821" transform="translate(46.3743,44.8115) rotate(180) translate(-4.16862,-20.7835)">
            <path id="pz-info-Path_598" data-name="Path 598" d="M487.932,332.111L487.28,332.111C485.859,332.158,484.654,331.074,484.552,329.655L483.665,304.193C483.668,303.48,483.959,302.798,484.473,302.304C484.988,301.81,485.68,301.546,486.393,301.572L489.272,301.572C489.992,301.545,490.692,301.814,491.208,302.317C491.723,302.82,492.01,303.513,492,304.234L490.66,329.696C490.536,331.098,489.338,332.158,487.932,332.111Z" fill="#ffffff" opacity="0" transform="translate(4.16862,31.2703) translate(-487.833,-316.841)" style="isolation: isolate; animation: 1s linear both pz-info-Path_598_t, 1s linear both pz-info-Path_598_o;"/>
            <ellipse id="pz-info-Ellipse_72" data-name="Ellipse 72" rx="3.602" ry="3.372" fill="#ffffff" opacity="0" transform="translate(0.566,42.824) translate(3.602,3.372)" style="animation: 1s linear both pz-info-Ellipse_72_t, 1s linear both pz-info-Ellipse_72_o;"/>
        </g>
    </g>
</svg>
