<svg xmlns="http://www.w3.org/2000/svg" width="105" height="153" viewBox="0 0 105 153">
  <g id="Pay_Plus" transform="translate(-21.318 -16.025)">
    <path id="Path_720" data-name="Path 720" d="M73.818,16.025a77.779,77.779,0,0,0-52.5,20.234V148.791h0a78.227,78.227,0,0,0,105,0V36.259h0A77.779,77.779,0,0,0,73.818,16.025Z" transform="translate(0 0)" fill="#fff"/>
    <path id="Path_721" data-name="Path 721" d="M81.854,26.9A74.991,74.991,0,0,0,32.191,45.572V155.619a75.376,75.376,0,0,0,99.325,0V45.572A74.992,74.992,0,0,0,81.854,26.9Zm0,2.8a72.256,72.256,0,0,1,46.825,17.143V96.882H35.028V46.843A72.256,72.256,0,0,1,81.854,29.7Zm0,141.789a72.257,72.257,0,0,1-46.825-17.142V117.56h93.651v36.788A72.258,72.258,0,0,1,81.854,171.49Z" transform="translate(-8.036 -8.07)" fill="#1d90ca"/>
    <g id="Group_1142" data-name="Group 1142" transform="translate(34.725 75.692)" opacity="0.747">
      <path id="Path_722" data-name="Path 722" d="M258.924,259.351l.012.023-.012-.022Z" transform="translate(-210.329 -256.299)" fill="#161516"/>
      <path id="Path_723" data-name="Path 723" d="M258.19,258.08l.007.011-.007-.011Z" transform="translate(-209.787 -255.356)" fill="#161516"/>
      <path id="Path_724" data-name="Path 724" d="M259.617,260.767h0l.02.045h0Z" transform="translate(-210.842 -257.35)" fill="#161516"/>
      <path id="Path_725" data-name="Path 725" d="M261.872,268.02v.006h0Z" transform="translate(-212.508 -262.734)" fill="#161516"/>
      <path id="Path_726" data-name="Path 726" d="M262.534,272.329c0,.032.007.063.01.1h0c0-.031-.007-.062-.01-.093C262.534,272.331,262.534,272.33,262.534,272.329Z" transform="translate(-212.997 -265.932)" fill="#161516"/>
      <path id="Path_727" data-name="Path 727" d="M261.237,265.337l0,.007,0-.006Z" transform="translate(-212.039 -260.742)" fill="#161516"/>
      <path id="Path_728" data-name="Path 728" d="M262.826,277.289c0,.057,0,.115,0,.173,0-.058,0-.115,0-.172Z" transform="translate(-213.213 -269.613)" fill="#161516"/>
      <path id="Path_729" data-name="Path 729" d="M260.474,262.914h0l.015.042h0Z" transform="translate(-211.475 -258.943)" fill="#161516"/>
      <path id="Path_730" data-name="Path 730" d="M190.54,257.236h0l.047.065v0Z" transform="translate(-159.79 -254.729)" fill="#161516"/>
      <path id="Path_731" data-name="Path 731" d="M195.247,270.652v0Z" transform="translate(-163.269 -264.687)" fill="#161516"/>
      <path id="Path_732" data-name="Path 732" d="M194.156,265.338h0l.008.031v0C194.161,265.358,194.159,265.348,194.156,265.338Z" transform="translate(-162.462 -260.743)" fill="#161516"/>
      <path id="Path_733" data-name="Path 733" d="M195.745,277.289c0,.057,0,.115,0,.173,0-.058,0-.115,0-.172Z" transform="translate(-163.637 -269.613)" fill="#161516"/>
      <path id="Path_734" data-name="Path 734" d="M195.632,274.376s0,0,0,0c0,.02,0,.041,0,.061v0C195.634,274.412,195.634,274.394,195.632,274.376Z" transform="translate(-163.553 -267.448)" fill="#161516"/>
      <path id="Path_735" data-name="Path 735" d="M195.71,279.819v0c0,.026,0,.052,0,.078C195.708,279.869,195.709,279.844,195.71,279.819Z" transform="translate(-163.608 -271.489)" fill="#161516"/>
      <path id="Path_736" data-name="Path 736" d="M195.453,272.328c0,.032.007.063.01.1h0c0-.031-.007-.062-.01-.093C195.453,272.33,195.453,272.329,195.453,272.328Z" transform="translate(-163.421 -265.931)" fill="#161516"/>
      <path id="Path_737" data-name="Path 737" d="M191.844,259.353h0l.032.059h0Z" transform="translate(-160.753 -256.3)" fill="#161516"/>
      <path id="Path_738" data-name="Path 738" d="M191.1,258.071l0,0,.031.048h0Z" transform="translate(-160.204 -255.346)" fill="#161516"/>
      <path id="Path_739" data-name="Path 739" d="M193.394,262.915h0l.015.042h0Z" transform="translate(-161.899 -258.944)" fill="#161516"/>
      <path id="Path_740" data-name="Path 740" d="M100.9,260.9l0,.011h0Z" transform="translate(-93.542 -257.446)" fill="#161516"/>
      <path id="Path_741" data-name="Path 741" d="M129.5,270.652v0Z" transform="translate(-114.676 -264.687)" fill="#161516"/>
      <path id="Path_742" data-name="Path 742" d="M127.644,262.915h0l.015.042h0Z" transform="translate(-113.306 -258.944)" fill="#161516"/>
      <path id="Path_743" data-name="Path 743" d="M126.095,259.353l.013.024-.013-.023Z" transform="translate(-112.161 -256.301)" fill="#161516"/>
      <path id="Path_744" data-name="Path 744" d="M129.883,274.383h0c0,.019,0,.039,0,.058v0C129.885,274.42,129.884,274.4,129.883,274.383Z" transform="translate(-114.961 -267.456)" fill="#161516"/>
      <path id="Path_745" data-name="Path 745" d="M128.4,265.333l.007.025-.006-.024Z" transform="translate(-113.869 -260.739)" fill="#161516"/>
      <path id="Path_746" data-name="Path 746" d="M129.995,277.279c0,.058,0,.116,0,.175,0-.058,0-.115,0-.172A.013.013,0,0,1,129.995,277.279Z" transform="translate(-115.044 -269.606)" fill="#161516"/>
      <path id="Path_747" data-name="Path 747" d="M129.96,279.819v0c0,.026,0,.052,0,.078C129.958,279.869,129.959,279.844,129.96,279.819Z" transform="translate(-115.016 -271.489)" fill="#161516"/>
      <path id="Path_748" data-name="Path 748" d="M129.7,272.332s0,0,0,0c0,.033.007.065.01.1,0,0,0,0,0,0C129.71,272.393,129.707,272.362,129.7,272.332Z" transform="translate(-114.828 -265.932)" fill="#161516"/>
      <path id="Path_749" data-name="Path 749" d="M125.355,258.074l0,0,.03.046h0C125.374,258.1,125.364,258.089,125.355,258.074Z" transform="translate(-111.613 -255.35)" fill="#161516"/>
      <path id="Path_750" data-name="Path 750" d="M124.086,249.038l0-.007-.024-.036c-.034-.053-.068-.1-.1-.154l-.046-.064c-.031-.042-.061-.083-.093-.122l-.027-.036-.025-.029c-.024-.029-.049-.057-.073-.085l-.058-.064c-.025-.027-.051-.053-.077-.078l-.041-.042-.011-.009a2.42,2.42,0,0,0-.236-.195l-.018-.015-.012-.007a1.92,1.92,0,0,0-.234-.139l-.02-.012-.016-.006a1.578,1.578,0,0,0-.241-.091l-.02-.007-.035-.007-.074-.016-.074-.012-.075-.008-.039,0-.072,0h-3.029l.011-.015-1.811.044-.689.017-2.553.062.017-.389H110.7l-2.237.036h-.049l-4.244.068-4.059.065-.615.01-7.9.127-4.258.068-2.385.038-2.185.035-.75.012-1.333.021-4.742.076-.805.013-2.438.039.56,2.2.178.7.729,2.867.631,2.481h.266c-.025-.329-.038-.667-.038-1.011a10.157,10.157,0,0,1,1.136-5l.049-.082q.1-.166.214-.313a1.987,1.987,0,0,1,1.529-.93h4.32l.072,0,.04,0,.075.008.025,0,.05.008.073.016.035.007.02.008a1.565,1.565,0,0,1,.241.091l.016.006.02.012a1.945,1.945,0,0,1,.234.139l.012.007.018.015a2.432,2.432,0,0,1,.236.195l.011.009.041.042.008.008a1.75,1.75,0,0,1,1.225-.58h4.32l.071,0,.04,0,.075.008.074.012.074.016.035.007.02.007a1.57,1.57,0,0,1,.241.091l.016.006.02.012a1.916,1.916,0,0,1,.234.139l.012.007.018.015a2.386,2.386,0,0,1,.236.195l.011.009.041.042c.026.025.051.051.076.078l.058.064c.025.028.049.056.073.085l.025.029.027.036q.047.059.093.122l.02.027.027.037c.035.05.069.1.1.154l.024.036,0,.007c.056.09.111.186.164.285l.031.058q.077.148.15.306l.01.02c0,.007.006.016.009.023q.108.243.2.51l.015.041q.1.28.184.583l.008.03q.081.295.147.61l.012.057c.072.354.13.724.172,1.108,0,.031.007.062.01.093q.022.215.037.435c0,.008,0,.016,0,.025s0,.02,0,.03c.014.228.023.46.026.695,0,.012,0,.024,0,.036,0,.045,0,.09,0,.136,0,.163,0,.323-.009.483,0,.018,0,.036,0,.053s0,.021,0,.032c-.006.15-.016.3-.027.443h7.058c-.025-.329-.038-.667-.038-1.011a10.155,10.155,0,0,1,1.136-5,4.382,4.382,0,0,1,.264-.395l.059-.075a1.936,1.936,0,0,1,1.47-.855h4.32l.071,0,.04,0,.075.008.074.012.074.016.035.007.02.007a1.568,1.568,0,0,1,.241.091l.016.006.02.012a1.913,1.913,0,0,1,.234.139l.012.007.018.015a2.384,2.384,0,0,1,.236.195l.011.009.041.042c.026.025.051.051.077.078l.058.064.023.027.05.058.025.029.027.036q.047.059.093.122l.046.064c.035.05.069.1.1.154l.024.036,0,.007c.056.09.111.186.164.285l.031.058q.077.148.15.306l.01.02.009.023q.108.243.2.51l.015.041q.1.28.184.583l.008.03q.081.3.147.61l.012.057c.072.354.13.724.172,1.108,0,.031.007.062.01.093.014.143.027.288.037.435,0,.008,0,.016,0,.025s0,.02,0,.03c.014.228.023.46.026.695,0,.012,0,.024,0,.036,0,.045,0,.09,0,.136,0,.163,0,.323-.009.483,0,.018,0,.036,0,.053s0,.021,0,.032c-.006.149-.016.3-.027.443h7.4c-.025-.329-.038-.667-.038-1.011a10.157,10.157,0,0,1,1.136-5q.1-.176.217-.331c.015-.021.031-.043.046-.064.065-.086.132-.165.2-.24a1.823,1.823,0,0,1,1.329-.69h4.32l.072,0,.04,0,.075.008.074.012.074.016.035.007.02.007c.01,0,.02.008.03.011C124.11,249.081,124.1,249.058,124.086,249.038Z" transform="translate(-72.698 -247.511)" fill="#161516"/>
      <path id="Path_751" data-name="Path 751" d="M252.89,253.581l.015,0-.015,0Z" transform="translate(-205.87 -252.016)" fill="#161516"/>
      <path id="Path_752" data-name="Path 752" d="M255.053,254.6l0,0,0,0Z" transform="translate(-207.468 -252.771)" fill="#161516"/>
      <path id="Path_753" data-name="Path 753" d="M187.972,254.6l.013.009-.013-.009Z" transform="translate(-157.892 -252.771)" fill="#161516"/>
      <path id="Path_754" data-name="Path 754" d="M189.986,256.513l.009.011-.009-.011Z" transform="translate(-159.38 -254.193)" fill="#161516"/>
      <path id="Path_755" data-name="Path 755" d="M189.483,255.935h0l.059.065h0Z" transform="translate(-159.008 -253.763)" fill="#161516"/>
      <path id="Path_756" data-name="Path 756" d="M185.809,253.581l.037.01-.037-.01Z" transform="translate(-156.293 -252.016)" fill="#161516"/>
      <path id="Path_757" data-name="Path 757" d="M189.094,255.539l.026.026h0Z" transform="translate(-158.721 -253.47)" fill="#161516"/>
      <path id="Path_758" data-name="Path 758" d="M97.3,255.439l.012.012-.012-.012Z" transform="translate(-90.882 -253.395)" fill="#161516"/>
      <path id="Path_759" data-name="Path 759" d="M94.119,253.581l.013,0-.013,0Z" transform="translate(-88.529 -252.016)" fill="#161516"/>
      <path id="Path_760" data-name="Path 760" d="M98.457,256.715l.01.013h0Z" transform="translate(-91.735 -254.343)" fill="#161516"/>
      <path id="Path_761" data-name="Path 761" d="M96.281,254.6l.011.008-.011-.008Z" transform="translate(-90.127 -252.771)" fill="#161516"/>
      <path id="Path_762" data-name="Path 762" d="M97.793,255.935l.02.022-.02-.022Z" transform="translate(-91.245 -253.764)" fill="#161516"/>
      <path id="Path_763" data-name="Path 763" d="M123.393,255.587l.013.013h0Z" transform="translate(-110.164 -253.505)" fill="#161516"/>
      <path id="Path_764" data-name="Path 764" d="M123.734,255.936h0l.058.065h0Z" transform="translate(-110.416 -253.764)" fill="#161516"/>
      <path id="Path_765" data-name="Path 765" d="M124.787,257.233v0l.048.065h0Z" transform="translate(-111.194 -254.726)" fill="#161516"/>
    </g>
    <path id="Path_766" data-name="Path 766" d="M244.822,130.159l-.009-1.688-.015-2.928-24.227-4.812-2.239-.445V153.08h3.587l.134-2.964.1-2.228.672-14.878a.6.6,0,0,1,.433-.588l.028-.008,10.02-2.756.588-.162a.552.552,0,0,1,.21-.016l2.34.266,8.378.952Z" transform="translate(-145.604 -77.387)" fill="#226f95"/>
    <g id="Group_1143" data-name="Group 1143" transform="translate(37.053 77.215)">
      <path id="Path_767" data-name="Path 767" d="M246.233,260.29c.007-.18.012-.363.012-.547,0-.058,0-.115,0-.173,0-.22-.011-.437-.024-.65,0-.014,0-.029,0-.043l0-.055q-.015-.22-.037-.435c0-.032-.007-.064-.01-.1-.016-.145-.033-.289-.054-.431,0-.026-.009-.049-.013-.075-.031-.2-.065-.4-.1-.6v-.006l-.011-.052q-.066-.315-.147-.61l-.006-.023,0-.007c-.056-.2-.118-.4-.183-.583l-.015-.042q-.1-.266-.2-.508l-.02-.045q-.072-.159-.15-.306l-.019-.035-.012-.023c-.053-.1-.107-.194-.163-.284l-.021-.032-.007-.011-.042-.065-.021-.031c-.013-.019-.025-.039-.038-.058l-.046-.064,0,0-.007-.01-.03-.042-.023-.028-.03-.039-.052-.065c-.024-.029-.049-.057-.073-.085l-.021-.023h0l-.035-.039h0c-.025-.027-.051-.052-.076-.078l-.052-.051c-.009-.008-.019-.014-.027-.023-.057-.052-.115-.1-.174-.143-.012-.009-.023-.021-.035-.029l-.025-.019,0,0a1.9,1.9,0,0,0-.234-.139l-.035-.018h0l-.01,0a1.586,1.586,0,0,0-.231-.087l-.039-.011-.015,0-.073-.016-.074-.012h0l-.044,0-.028,0c-.037,0-.074-.006-.111-.006a1.823,1.823,0,0,0-1.33.69c-.068.075-.135.154-.2.24l-.046.064q-.112.155-.217.331a10.155,10.155,0,0,0-1.136,5c0,.344.013.682.038,1.011a11.645,11.645,0,0,0,.371,2.212,7.224,7.224,0,0,0,.727,1.776c.057.1.115.186.175.272h3.235l.014-.019.03-.045.013-.02c.023-.035.047-.07.07-.107l.008-.012c.039-.063.077-.129.115-.2l.016-.03.011-.021.007-.013c.026-.047.052-.1.076-.145.013-.025.025-.051.037-.076l0-.009c.021-.044.042-.087.063-.132l.046-.105c.019-.042.037-.085.055-.128l.033-.081c.032-.079.062-.159.092-.242l.019-.051.008-.021q.054-.153.1-.312l.012-.041c.013-.041.023-.085.035-.128s.025-.075.036-.114c.029-.1.056-.211.082-.319l.015-.065q.057-.246.1-.5l.006-.033.007-.038c.029-.162.055-.328.077-.5,0-.022.006-.045.009-.068l0-.012q.032-.248.054-.5c0-.027,0-.055.007-.082s.005-.06.008-.09c.009-.117.014-.237.02-.357,0-.029,0-.056.005-.085Zm-2.9,3.034-.019,0a1.013,1.013,0,0,1-.722-.36,4.1,4.1,0,0,1-.87-2.212,7.487,7.487,0,0,1-.068-1.012c0-1.981.743-3.585,1.66-3.585l.018,0a1.229,1.229,0,0,1,.939.658l.03.048q.069.111.133.237c.009.018.019.036.028.055.049.1.1.209.139.323l.007.02c.039.105.075.216.108.33.009.031.018.062.026.093.029.105.055.214.079.326,0,.022.01.043.015.066q.04.2.069.409c0,.033.008.067.012.1q.02.167.033.341c0,.041.006.082.009.124.009.148.015.3.015.452s-.006.3-.015.452c0,.042-.006.083-.009.124q-.013.173-.033.341c0,.031-.007.064-.011.095v0c-.019.14-.042.277-.068.409,0,.022-.01.044-.015.066q-.036.168-.079.325c-.009.031-.017.062-.026.093-.033.114-.069.225-.108.329L244.6,262c-.043.114-.09.221-.139.323-.009.019-.019.037-.028.055q-.063.125-.132.236l-.03.049a2.086,2.086,0,0,1-.236.3A1.025,1.025,0,0,1,243.335,263.324Z" transform="translate(-198.957 -253.417)" fill="#323233"/>
      <path id="Path_768" data-name="Path 768" d="M179.136,258.881c0-.02,0-.041,0-.061q-.015-.218-.037-.431c0-.032-.007-.064-.01-.1-.016-.145-.033-.288-.053-.428v0q-.053-.365-.126-.71l0-.02q-.066-.314-.147-.608l-.008-.031q-.084-.3-.184-.583l-.015-.042c-.061-.168-.126-.328-.193-.482l-.011-.028-.019-.043q-.072-.159-.149-.306l-.032-.059c-.053-.1-.107-.193-.163-.283l-.031-.048-.04-.062-.059-.087-.047-.066-.039-.054-.044-.056-.009-.011-.028-.035-.016-.02-.009-.011c-.024-.029-.048-.056-.072-.084s-.039-.044-.059-.065-.05-.051-.075-.076l-.026-.026-.026-.026-.028-.023a2.351,2.351,0,0,0-.2-.162l-.012-.01-.017-.013-.013-.009a1.893,1.893,0,0,0-.234-.139l-.023-.012,0,0-.009,0a1.621,1.621,0,0,0-.241-.091l-.017,0-.037-.01-.073-.016-.074-.012h0l-.044,0-.028,0c-.037,0-.074-.006-.111-.006a1.936,1.936,0,0,0-1.47.855c-.02.025-.04.049-.059.075a4.48,4.48,0,0,0-.264.395,10.155,10.155,0,0,0-1.136,5c0,.344.013.682.038,1.011a11.646,11.646,0,0,0,.371,2.212,7.223,7.223,0,0,0,.727,1.776c.057.1.115.186.175.272h3.234l.014-.02.043-.065c.02-.03.04-.061.06-.092l.01-.015.008-.012q.059-.095.115-.2l.035-.066c.026-.047.051-.094.075-.143l.013-.027.031-.063c.021-.043.041-.085.062-.129s.029-.065.043-.1.038-.087.057-.132l.034-.084c.031-.077.061-.156.09-.237l.027-.074q.054-.153.1-.312l.013-.044c.024-.079.047-.159.07-.24s.037-.15.056-.224c.009-.032.018-.063.026-.1l.015-.063c0-.009,0-.019.006-.028.028-.123.053-.248.078-.376.007-.035.015-.068.021-.1l0-.025.009-.049c.028-.161.054-.326.077-.493,0-.018,0-.037.007-.055l0-.024q.032-.247.054-.5c0-.028,0-.057.007-.085s.005-.06.008-.09c.01-.129.016-.26.022-.391,0-.017,0-.034,0-.051s0-.008,0-.012c0-.026,0-.052,0-.078.005-.158.009-.317.009-.479,0-.058,0-.115,0-.173Q179.158,259.221,179.136,258.881Zm-2.881,4.444-.02,0a1.013,1.013,0,0,1-.721-.36,4.1,4.1,0,0,1-.87-2.212,7.489,7.489,0,0,1-.068-1.012c0-1.981.743-3.585,1.66-3.585l.019,0a1.229,1.229,0,0,1,.939.657c.011.016.021.034.031.05q.069.11.131.234l.029.057c.049.1.1.208.138.322,0,.007.005.016.008.023.039.1.074.214.107.327q.014.047.027.095c.029.1.055.213.079.324,0,.023.01.044.015.067q.04.2.068.409c0,.033.008.067.012.1q.02.167.033.341c0,.041.006.082.009.124.009.148.015.3.015.452s-.006.3-.015.452c0,.042-.006.083-.009.124q-.013.173-.033.34c0,.031-.007.064-.011.095v0q-.029.21-.068.409c0,.023-.01.044-.015.067q-.036.167-.079.324c-.009.032-.017.063-.027.095-.033.113-.068.222-.107.326l-.008.024c-.043.114-.09.22-.138.322l-.029.057q-.063.124-.131.234c-.01.017-.021.034-.031.051a2.217,2.217,0,0,1-.176.237h0c-.02.023-.04.041-.06.063A1.02,1.02,0,0,1,176.255,263.325Z" transform="translate(-149.381 -253.418)" fill="#323233"/>
      <path id="Path_769" data-name="Path 769" d="M87.456,259.138c0-.065,0-.131-.006-.2,0-.012,0-.024,0-.036s0-.02,0-.029,0-.036,0-.055c-.006-.083-.014-.164-.021-.246,0-.047-.007-.095-.012-.141,0-.016,0-.032,0-.048,0-.031-.007-.062-.01-.093-.007-.062-.015-.122-.023-.183s-.012-.1-.019-.152c0-.033-.008-.067-.012-.1s-.014-.076-.02-.114q-.038-.246-.085-.483c0-.025-.008-.052-.014-.077l-.012-.057v0c-.039-.186-.083-.365-.13-.54-.006-.022-.01-.046-.016-.069l-.008-.029c-.007-.026-.016-.048-.023-.073-.049-.172-.1-.34-.157-.5l0-.01-.015-.041c-.007-.019-.015-.036-.022-.055-.031-.083-.061-.166-.093-.246s-.059-.141-.09-.21l0-.011-.015-.033q-.072-.159-.15-.307l-.024-.046,0-.007,0,0c-.053-.1-.107-.195-.164-.285l-.028-.043-.008-.012,0,0-.033-.051-.019-.027c-.014-.021-.027-.042-.041-.061l-.046-.064-.014-.018-.026-.037c-.017-.023-.035-.045-.053-.067l-.01-.013-.042-.052c-.024-.029-.049-.057-.073-.085l-.038-.042-.02-.022c-.025-.027-.051-.052-.076-.077l-.039-.039-.012-.012a2.417,2.417,0,0,0-.236-.195l-.019-.013-.011-.008a1.914,1.914,0,0,0-.234-.139l-.035-.018h0l-.02-.007a1.589,1.589,0,0,0-.221-.083l-.042-.012-.013,0-.073-.016-.074-.012h0l-.044,0-.028,0c-.037,0-.074-.006-.111-.006a1.987,1.987,0,0,0-1.529.93q-.11.146-.214.313c-.017.027-.033.055-.049.082a10.155,10.155,0,0,0-1.136,5c0,.344.013.682.038,1.011a11.643,11.643,0,0,0,.371,2.212,7.22,7.22,0,0,0,.727,1.776c.057.1.115.187.175.273h3.234l0,0,.013-.017.027-.041.016-.023.008-.013c.019-.028.037-.056.056-.085l.013-.02c.022-.036.043-.073.065-.111l.022-.037.029-.049.034-.064c.026-.047.051-.095.076-.144.014-.028.028-.058.042-.087s.042-.087.063-.132.029-.066.044-.1.038-.087.057-.132l.014-.035v0l.017-.042q.047-.118.092-.242l.026-.071c.009-.024.016-.05.025-.074s.017-.052.026-.079c.018-.054.036-.106.053-.161l.012-.041c.01-.034.019-.071.029-.106s.029-.089.041-.136c.017-.063.032-.13.048-.195.011-.042.023-.082.034-.125l.015-.063c0-.02.008-.041.013-.062.02-.087.037-.177.055-.266.012-.06.026-.118.037-.179l.013-.07c0-.014,0-.03.007-.044.014-.078.025-.158.037-.238s.024-.143.034-.216l.01-.078c0-.012,0-.025,0-.038.009-.076.017-.154.025-.231s.019-.156.026-.237c0-.027,0-.053.007-.08s0-.025,0-.037,0-.036.005-.055c.005-.07.009-.141.014-.212,0-.027,0-.054,0-.081,0-.05.007-.1.009-.15,0-.029,0-.058,0-.087.005-.159.009-.32.009-.482,0-.058,0-.115,0-.172C87.471,259.424,87.463,259.281,87.456,259.138Zm-2.891,4.186-.02,0a1.013,1.013,0,0,1-.722-.36,4.1,4.1,0,0,1-.87-2.212,7.489,7.489,0,0,1-.068-1.012c0-1.981.743-3.585,1.66-3.585l.018,0a1.229,1.229,0,0,1,.939.658l.031.049q.069.111.132.235c.01.019.019.037.029.056.049.1.1.208.139.323l.007.021c.039.1.074.215.108.329.009.031.018.062.026.094q.043.157.079.324c0,.022.01.044.015.067q.04.2.068.409c0,.033.008.066.012.1.006.049.013.1.018.148s.011.128.016.192c0,.041.006.082.009.124.009.148.015.3.015.452s-.006.3-.015.452c0,.042-.006.083-.009.124,0,.064-.009.129-.016.192s-.011.1-.018.148c0,.031-.007.064-.011.095v0c-.019.14-.042.277-.068.409,0,.023-.01.044-.015.067q-.036.167-.079.324l-.026.094c-.033.114-.069.224-.108.328l-.008.022c-.043.114-.09.221-.139.322-.009.02-.019.038-.029.057q-.063.125-.132.235l-.031.05a2.065,2.065,0,0,1-.236.3A1.023,1.023,0,0,1,84.566,263.324Z" transform="translate(-81.618 -253.417)" fill="#323233"/>
      <path id="Path_770" data-name="Path 770" d="M113.388,258.883c0-.02,0-.039,0-.058q-.015-.218-.037-.431l-.01-.1c-.016-.145-.033-.288-.053-.428v0c-.033-.23-.073-.455-.118-.673v0l-.008-.04,0-.015q-.066-.315-.147-.61l0-.006-.007-.025q-.084-.3-.183-.582l-.015-.042c-.061-.171-.127-.333-.2-.489l-.008-.021-.019-.043q-.072-.159-.15-.307l-.018-.034-.013-.024-.008-.015c-.051-.093-.1-.184-.156-.27l-.03-.046-.041-.063-.037-.057-.023-.031-.048-.065-.038-.053-.025-.031-.028-.036-.052-.065c-.024-.029-.049-.057-.073-.084l-.058-.065c-.025-.027-.05-.052-.076-.077l-.013-.013-.039-.038c-.01-.009-.02-.016-.03-.025a2.421,2.421,0,0,0-.2-.168l0,0h0l-.005,0-.023-.017-.028-.017a1.92,1.92,0,0,0-.186-.11l-.02-.012-.035-.018h0a1.629,1.629,0,0,0-.224-.085l-.017-.006-.054-.015h0l-.041-.009-.031-.007-.074-.012h0l-.062-.007H110.6c-.037,0-.074-.006-.111-.006a1.748,1.748,0,0,0-1.225.58,3.3,3.3,0,0,0-.3.35c-.049.064-.1.133-.143.2s-.081.126-.121.192a6.093,6.093,0,0,0-.406.824,10.762,10.762,0,0,0-.706,3.369s0,.005,0,.008c-.015.262-.024.529-.024.8s.009.537.024.8c0,0,0,.005,0,.008,0,.068.008.136.013.2a11.648,11.648,0,0,0,.371,2.212,8.523,8.523,0,0,0,.321.953,6.134,6.134,0,0,0,.406.823c.057.1.115.186.175.272h3.235l.014-.02.031-.048.012-.017c.021-.032.042-.063.063-.1l.015-.022c.039-.063.077-.128.115-.2l.035-.065,0-.009,0-.006c.023-.042.046-.085.068-.129l.013-.027.031-.063c.021-.043.041-.085.062-.129s.029-.065.043-.1.038-.087.057-.132l.02-.051.013-.032q.047-.118.092-.242l0-.011c.008-.021.015-.041.023-.062q.053-.152.1-.31l.008-.027,0-.015v0c.024-.078.047-.157.069-.238s.048-.186.071-.281c0-.013.007-.026.011-.039l.01-.04.005-.023c.038-.164.074-.333.105-.506,0-.024.009-.048.013-.072q.043-.243.077-.5c0-.027.007-.054.011-.081q.031-.246.054-.5c0-.028,0-.057.007-.085s.005-.06.008-.09c.01-.129.016-.26.022-.391,0-.017,0-.034,0-.051s0-.008,0-.012c0-.026,0-.052,0-.078.005-.158.009-.317.009-.479,0-.059,0-.117,0-.175C113.411,259.339,113.4,259.109,113.388,258.883Zm-2.881,4.444-.019,0c-.012,0-.024,0-.036,0a1.028,1.028,0,0,1-.685-.356,4.1,4.1,0,0,1-.87-2.212c-.011-.08-.021-.161-.029-.243a7.549,7.549,0,0,1,0-1.538c.16-1.582.8-2.771,1.58-2.811.014,0,.027,0,.041,0l.018,0a1.228,1.228,0,0,1,.939.658l.031.05q.068.11.132.235c.01.019.02.037.029.057.049.1.1.208.139.322l.008.023c.039.1.074.214.107.327q.014.047.027.095c.029.1.055.213.079.324,0,.023.01.044.015.067q.04.2.068.409c0,.033.008.066.012.1q.02.167.033.341c0,.041.006.082.009.124.009.148.015.3.015.452s-.006.3-.015.452c0,.042-.006.083-.009.124q-.013.173-.033.341c0,.031-.007.064-.011.095v0c-.019.14-.042.277-.068.409,0,.023-.01.044-.015.067q-.036.167-.079.324c-.009.032-.017.063-.027.095-.033.113-.068.222-.107.326l-.008.024c-.043.114-.09.22-.138.322-.009.02-.019.038-.029.057-.042.083-.086.161-.132.235-.01.017-.02.034-.031.05a2.067,2.067,0,0,1-.236.3A1.024,1.024,0,0,1,110.507,263.327Z" transform="translate(-100.791 -253.421)" fill="#323233"/>
    </g>
    <g id="Group_1144" data-name="Group 1144" transform="translate(39.885 80.377)">
      <path id="Path_771" data-name="Path 771" d="M252.981,268.4c0-.042-.006-.083-.009-.124q-.013-.173-.033-.341c0-.033-.007-.067-.012-.1-.019-.14-.042-.277-.069-.409,0-.023-.01-.044-.015-.066q-.036-.168-.079-.326l-.026-.093c-.033-.114-.069-.225-.108-.33l-.007-.02c-.043-.114-.09-.221-.139-.323-.009-.019-.019-.037-.028-.055q-.063-.126-.133-.237c-.01-.016-.02-.033-.03-.048a2.221,2.221,0,0,0-.176-.237,2.716,2.716,0,0,0-.392.637,6.189,6.189,0,0,0-.486,2.525,7.542,7.542,0,0,0,.068,1.012,5.382,5.382,0,0,0,.417,1.51,2.716,2.716,0,0,0,.394.639,2.2,2.2,0,0,0,.176-.237l.03-.049c.046-.074.09-.153.132-.236.009-.019.019-.036.028-.055.049-.1.1-.209.139-.323l.007-.021c.039-.1.075-.216.108-.329.009-.031.018-.062.026-.093q.043-.158.079-.325c0-.022.01-.043.015-.066.027-.132.049-.269.068-.409v0c0-.031.007-.063.011-.095q.02-.167.033-.341c0-.041.006-.082.009-.124.009-.148.015-.3.015-.452S252.99,268.546,252.981,268.4Z" transform="translate(-209.809 -265.687)" fill="#cfd2d3"/>
      <path id="Path_772" data-name="Path 772" d="M185.894,268.273q-.013-.173-.033-.341c0-.033-.007-.067-.012-.1-.019-.14-.042-.277-.068-.409,0-.023-.01-.044-.015-.067q-.036-.167-.079-.324c-.009-.032-.017-.063-.027-.095-.033-.113-.068-.223-.107-.327l-.008-.023c-.043-.114-.09-.22-.138-.322-.009-.02-.02-.038-.029-.057-.042-.083-.086-.161-.131-.234-.01-.017-.02-.034-.031-.05a2.231,2.231,0,0,0-.176-.237,2.718,2.718,0,0,0-.392.637,6.189,6.189,0,0,0-.486,2.525,7.534,7.534,0,0,0,.068,1.012,5.383,5.383,0,0,0,.418,1.513,2.715,2.715,0,0,0,.392.637h0a2.237,2.237,0,0,0,.176-.237l.031-.051c.046-.073.089-.151.131-.234.01-.019.02-.038.029-.058.049-.1.1-.208.138-.322l.008-.024c.039-.1.074-.213.107-.326.009-.031.018-.063.027-.095q.043-.157.079-.324c0-.023.01-.044.015-.067q.04-.2.068-.409v0c0-.031.007-.063.011-.095q.02-.167.033-.341c0-.041.006-.082.009-.124.009-.148.015-.3.015-.452s-.006-.3-.015-.452C185.9,268.355,185.9,268.314,185.894,268.273Z" transform="translate(-160.235 -265.687)" fill="#cfd2d3"/>
      <path id="Path_773" data-name="Path 773" d="M94.2,268.273c0-.058-.011-.113-.017-.17s-.01-.115-.017-.171c0-.033-.007-.067-.012-.1q-.029-.21-.068-.409c0-.023-.01-.044-.015-.067q-.036-.167-.079-.325c-.009-.031-.017-.063-.026-.094-.033-.114-.069-.224-.108-.329l-.007-.021c-.043-.114-.09-.221-.139-.323l-.029-.056q-.063-.125-.132-.235l-.031-.049a2.228,2.228,0,0,0-.176-.237,2.717,2.717,0,0,0-.392.637,6.189,6.189,0,0,0-.486,2.525,7.532,7.532,0,0,0,.068,1.012,5.378,5.378,0,0,0,.417,1.51,2.716,2.716,0,0,0,.394.639,2.231,2.231,0,0,0,.176-.237c.01-.016.021-.033.031-.05.046-.073.09-.152.132-.235.01-.019.02-.037.029-.057.049-.1.1-.209.139-.322l.008-.022c.039-.1.074-.215.108-.328.009-.031.018-.062.026-.094q.043-.157.079-.324c0-.022.01-.044.015-.067.027-.132.049-.269.068-.409v0c0-.031.007-.063.011-.095.007-.056.011-.113.017-.17s.013-.113.017-.17c0-.041.006-.082.009-.124.009-.148.015-.3.015-.452s-.006-.3-.015-.452C94.21,268.355,94.207,268.314,94.2,268.273Z" transform="translate(-92.471 -265.687)" fill="#cfd2d3"/>
      <path id="Path_774" data-name="Path 774" d="M120.143,268.272q-.013-.173-.033-.341c0-.033-.007-.067-.012-.1-.019-.14-.042-.277-.068-.409,0-.023-.01-.044-.015-.067q-.036-.167-.079-.324c-.009-.032-.017-.063-.027-.095-.033-.113-.068-.223-.107-.327l-.008-.024c-.043-.114-.09-.221-.139-.322l-.029-.057c-.042-.083-.086-.162-.132-.235l-.031-.05a2.189,2.189,0,0,0-.176-.237,2.708,2.708,0,0,0-.392.637c-.038.082-.075.164-.109.253a6.518,6.518,0,0,0-.377,2.272,7.538,7.538,0,0,0,.068,1.012,5.743,5.743,0,0,0,.312,1.266c.033.086.069.165.1.244a2.717,2.717,0,0,0,.393.64,2.215,2.215,0,0,0,.176-.237l.031-.05c.046-.073.09-.152.132-.235.01-.019.02-.037.029-.057.049-.1.1-.208.138-.322l.008-.024c.039-.1.074-.213.107-.326.009-.031.018-.063.027-.095q.043-.157.079-.324c0-.023.01-.044.015-.067.027-.132.049-.269.068-.409v0c0-.031.007-.063.011-.095q.02-.167.033-.341c0-.041.006-.082.009-.124.009-.148.015-.3.015-.452s-.006-.3-.015-.452C120.149,268.355,120.146,268.314,120.143,268.272Z" transform="translate(-111.641 -265.686)" fill="#cfd2d3"/>
    </g>
    <g id="Group_1145" data-name="Group 1145" transform="translate(39.981 77.214)" opacity="0.786">
      <path id="Path_775" data-name="Path 775" d="M257.288,260.834c0-.012.005-.024.008-.036s0-.023.005-.034,0-.008,0-.012q.042-.239.076-.486c0-.013,0-.026.006-.039s0-.026,0-.039q.032-.249.054-.505c0-.012,0-.024,0-.036s0-.029,0-.043q.022-.264.033-.534c0-.011,0-.021,0-.032s0-.036,0-.053c.005-.16.009-.32.009-.483,0-.045,0-.091,0-.136,0-.012,0-.024,0-.036q0-.353-.026-.695c0-.01,0-.02,0-.03s0-.016,0-.025c-.01-.147-.022-.292-.037-.435,0-.031-.007-.062-.01-.093-.042-.384-.1-.754-.172-1.108l-.012-.057q-.066-.314-.147-.61l-.008-.03q-.084-.3-.184-.583l-.015-.041q-.1-.267-.2-.51l0-.008-.006-.016-.01-.02q-.072-.159-.15-.306l-.031-.058c-.041-.077-.084-.15-.127-.221-.01,0-.02-.008-.03-.011l-.02-.008-.035-.007-.074-.016-.074-.012-.075-.008-.04,0-.071,0h-4.32a1.4,1.4,0,0,1,.334.042h0l.015,0a1.7,1.7,0,0,1,.549.258h0l0,0a2.52,2.52,0,0,1,.39.342h0l.035.039c.068.075.135.154.2.24l.03.042c.039.053.077.108.115.165l.042.065h0l.007.011q.1.15.185.316h0l.012.022c.058.109.115.223.169.342h0l.019.043v0q.108.242.2.508h0l.015.041h0q.1.28.183.583h0l0,.006c.061.22.116.449.164.685v.005h0c.072.353.13.722.171,1.105,0,0,0,0,0,0,0,.031.007.062.01.092h0c.039.383.061.778.066,1.183h0c0,.057,0,.114,0,.172,0,.344-.013.682-.038,1.011,0,.03,0,.06-.008.09v0c0,.027,0,.053-.007.08h0q-.023.262-.056.516l-.009.066v0q-.037.272-.084.534l-.006.033h0q-.047.258-.1.5h0l-.015.063v0c-.026.108-.053.214-.082.319q-.085.31-.186.6h0l-.007.02q-.093.262-.2.5l0,.006-.043.1v0c-.021.045-.042.088-.063.132h0l0,.009a5.447,5.447,0,0,1-.262.48h0l-.008.012c-.023.037-.046.072-.07.107s-.038.057-.057.085h4.32l.014-.02c.035-.051.07-.1.1-.159l.016-.025c.039-.063.077-.129.115-.2.012-.021.023-.044.035-.066.025-.047.051-.094.075-.143.014-.028.028-.057.042-.086.021-.044.043-.088.063-.133s.029-.065.043-.1.039-.088.057-.133l.014-.034.018-.047q.047-.118.092-.242l.026-.071c.036-.1.07-.206.1-.313l.006-.019c0-.007,0-.016.006-.024.014-.047.026-.1.039-.145.009-.032.017-.065.026-.1.029-.106.06-.21.087-.32,0-.01.005-.019.008-.029s0-.022.007-.033q.058-.247.105-.507c0-.012.005-.024.008-.036s0-.023.005-.034q.043-.244.077-.5c0-.013,0-.026.006-.039s0-.026,0-.039q.032-.249.055-.505c0-.012,0-.024,0-.036s0-.025,0-.038h-1.528A.07.07,0,0,0,257.288,260.834Z" transform="translate(-210.18 -253.415)" fill="#1d1d1e"/>
      <path id="Path_776" data-name="Path 776" d="M191.776,259.571q0-.353-.026-.695c0-.01,0-.02,0-.03s0-.016,0-.025q-.015-.22-.037-.435c0-.031-.007-.062-.01-.093-.042-.384-.1-.754-.172-1.108l-.012-.057q-.066-.314-.147-.61l-.008-.03q-.084-.3-.184-.583l-.015-.041q-.1-.267-.2-.51l-.009-.023-.01-.02q-.072-.159-.15-.306l-.031-.058c-.053-.1-.108-.195-.164-.285l0-.007c-.008-.013-.016-.024-.024-.036-.034-.053-.068-.1-.1-.154l-.046-.064q-.046-.063-.093-.122c-.009-.012-.018-.024-.027-.036l-.025-.029-.05-.058-.023-.027-.058-.064c-.025-.027-.051-.052-.077-.078l-.041-.042-.011-.009a2.418,2.418,0,0,0-.236-.195l-.018-.015-.012-.007a1.922,1.922,0,0,0-.234-.139l-.02-.012-.016-.006a1.565,1.565,0,0,0-.241-.091l-.02-.008-.035-.007-.074-.016-.074-.012-.075-.008-.04,0-.071,0h-4.32a1.4,1.4,0,0,1,.334.042h0l.037.01a1.716,1.716,0,0,1,.527.252h0l.013.009a2.377,2.377,0,0,1,.28.233l.026.025h0c.025.025.05.05.075.076h0c.02.021.039.042.058.064h0c.024.027.049.055.072.084h0l.008.01.016.02c.027.034.054.067.081.1l.039.054h0l.046.064v0l.059.087.04.062,0,0,.028.043h0c.056.09.11.185.163.283h0l.031.057h0a6.876,6.876,0,0,1,.373.859h0l.015.041h0q.1.28.184.583h0l.008.029v0a10.958,10.958,0,0,1,.276,1.339v0c.02.14.037.284.053.428,0,0,0,0,0,0,0,.031.007.062.01.093h0q.022.213.037.431s0,0,0,0c0,.018,0,.036,0,.055v0q.022.34.026.691h0c0,.057,0,.114,0,.172,0,.161,0,.32-.009.479v0c0,.025,0,.05,0,.075q-.009.23-.026.454c0,.03,0,.06-.008.09v0c0,.027,0,.053-.007.08a.018.018,0,0,1,0,0q-.023.267-.057.526l-.007.054h0q-.034.251-.077.493v0l-.008.046c-.058.318-.127.624-.207.914q-.034.122-.07.241v0l-.012.041h0q-.049.16-.1.312h0c-.008.024-.017.047-.026.071v0q-.044.121-.09.237v0l-.033.081h0c-.019.045-.038.088-.057.132h0c-.014.032-.028.065-.043.1h0c-.02.044-.041.086-.062.129l0,.005-.028.058c-.029.058-.058.114-.088.17v0l-.034.064h0q-.06.108-.123.208l-.006.009,0,.006c-.02.031-.04.062-.06.092l-.043.065h0l-.014.02h4.32l.014-.02c.035-.051.07-.1.1-.159l.016-.025c.039-.063.077-.129.115-.2.012-.021.023-.044.035-.066.026-.047.051-.094.075-.143l.042-.086c.021-.044.043-.088.064-.133s.029-.065.043-.1.039-.088.057-.134l.014-.034c.006-.015.012-.032.018-.047q.047-.118.092-.242l.026-.071q.054-.153.1-.313l.006-.019c0-.008,0-.016.007-.024.024-.078.043-.162.066-.242.029-.106.06-.21.087-.32,0-.01.005-.019.008-.029s0-.022.007-.033q.058-.247.105-.507c0-.012.005-.024.008-.036s0-.023.005-.034q.043-.244.077-.5c0-.013,0-.025.006-.039s0-.026,0-.039q.032-.249.055-.505c0-.012,0-.024,0-.036s0-.029,0-.043c0-.03,0-.061.006-.091.011-.146.021-.293.027-.443,0-.011,0-.021,0-.032s0-.036,0-.053c.006-.16.009-.32.009-.483,0-.045,0-.09,0-.136C191.777,259.594,191.776,259.583,191.776,259.571Z" transform="translate(-160.604 -253.416)" fill="#1d1d1e"/>
      <path id="Path_777" data-name="Path 777" d="M98.334,253.948l-.011-.009a2.424,2.424,0,0,0-.236-.195l-.018-.015-.012-.007a1.91,1.91,0,0,0-.234-.139l-.02-.012-.016-.006a1.582,1.582,0,0,0-.241-.091l-.02-.007-.035-.007-.073-.016-.05-.008-.025,0-.075-.008-.04,0-.072,0h-4.32a1.4,1.4,0,0,1,.334.042h0l.012,0a1.7,1.7,0,0,1,.552.259h0l.011.008a2.373,2.373,0,0,1,.255.208h0l.012.012c.039.037.078.076.116.116h0l.02.022q.078.085.153.179l.01.013h0l.053.067c.05.066.1.135.145.207l.033.051a5.611,5.611,0,0,1,.4.74l0,.01h0q.046.1.09.21a10.766,10.766,0,0,1,.706,3.377c.015.262.024.529.024.8s-.009.537-.024.8c0,.071-.008.141-.014.212a11.645,11.645,0,0,1-.371,2.212,8.46,8.46,0,0,1-.321.952c-.023.058-.047.114-.072.17v0c-.014.032-.028.065-.043.1h0c-.021.045-.042.088-.063.132v0l-.041.085h0a5.116,5.116,0,0,1-.3.523c-.019.029-.038.057-.057.085h3.534c-.06-.086-.118-.177-.175-.272a6.091,6.091,0,0,1-.406-.823,8.524,8.524,0,0,1-.321-.953,11.644,11.644,0,0,1-.371-2.212c0-.068-.009-.136-.013-.2,0,0,0-.005,0-.008-.015-.262-.024-.528-.024-.8s.009-.538.024-.8c0,0,0-.005,0-.008a10.753,10.753,0,0,1,.706-3.369,6.091,6.091,0,0,1,.406-.824q.059-.1.121-.191c.047-.07.094-.139.143-.2a3.305,3.305,0,0,1,.3-.35l-.008-.008C98.361,253.976,98.348,253.962,98.334,253.948Z" transform="translate(-92.839 -253.418)" fill="#1d1d1e"/>
      <path id="Path_778" data-name="Path 778" d="M126.025,259.572q0-.353-.026-.695c0-.01,0-.02,0-.03s0-.016,0-.025q-.015-.22-.037-.435c0-.031-.007-.062-.01-.092-.042-.384-.1-.754-.172-1.108l-.012-.057q-.066-.314-.147-.61l-.008-.03q-.084-.3-.184-.583l-.015-.041q-.1-.267-.2-.51c0-.007-.006-.016-.009-.023l-.01-.02q-.072-.159-.15-.306l-.031-.058c-.053-.1-.108-.195-.164-.285l0-.007-.024-.036c-.034-.053-.068-.1-.1-.154l-.027-.037-.02-.027q-.046-.063-.093-.122l-.027-.036-.025-.029c-.024-.029-.049-.057-.073-.085l-.058-.064c-.025-.027-.051-.052-.076-.078l-.041-.042-.011-.009a2.419,2.419,0,0,0-.236-.195l-.018-.015-.012-.007a1.91,1.91,0,0,0-.234-.139l-.02-.012-.016-.006a1.571,1.571,0,0,0-.241-.091l-.02-.007-.035-.007-.074-.016-.074-.012-.075-.008-.04,0-.072,0h-4.32a1.462,1.462,0,0,1,.629.148h0a2.147,2.147,0,0,1,.574.411l.013.012h0c.025.025.051.05.076.077h0l.058.064h0c.061.068.12.139.178.216l.038.053v0l.046.064h0l.023.031.037.057.041.063,0,0,.028.043h0c.053.086.105.176.156.27l.008.015h0l.013.023a6.842,6.842,0,0,1,.391.894h0l.015.041h0c.066.186.127.38.183.582h0l.006.024a11,11,0,0,1,.278,1.346v0c.02.141.037.284.053.428v0c0,.031.007.062.01.093,0,0,0,0,0,0q.022.213.037.431h0c0,.018,0,.036,0,.055v0q.022.339.026.688v0c0,.057,0,.114,0,.172,0,.161,0,.32-.009.479v0c0,.025,0,.05,0,.075-.006.153-.015.3-.026.454,0,.03,0,.06-.008.09v0c0,.027,0,.053-.007.08a.019.019,0,0,1,0,0q-.022.254-.054.5a0,0,0,0,1,0,0l-.01.078h0q-.034.252-.077.5v0l-.013.07h0q-.048.259-.105.505h0l-.006.023q-.043.184-.092.36-.036.131-.075.258l-.008.026h0q-.049.159-.1.31v0l-.022.06q-.052.146-.109.284l-.02.049h0c-.019.045-.038.089-.057.132h0c-.014.032-.028.065-.043.1h0c-.02.044-.041.086-.062.129l0,.005-.028.058c-.028.055-.056.11-.085.163l0,.009h0l-.034.064h0q-.056.1-.115.2h0l-.013.02v0c-.021.033-.042.064-.063.1s-.038.057-.057.085h4.32l.014-.02c.035-.051.07-.1.1-.159l.016-.025c.039-.063.077-.129.115-.2.012-.021.023-.044.035-.066.026-.047.051-.094.075-.143l.042-.086c.021-.044.043-.088.064-.133s.029-.065.043-.1.039-.088.057-.134l.014-.033c.006-.015.012-.032.018-.047q.047-.118.092-.242l.026-.071q.054-.153.1-.313l.006-.019c0-.008,0-.016.006-.024.024-.078.043-.162.066-.242.029-.106.06-.21.087-.32,0-.01.005-.019.008-.029s0-.022.007-.033q.058-.248.105-.507c0-.012.005-.024.008-.036s0-.023.005-.034q.043-.244.077-.5c0-.013,0-.026.006-.039s0-.026,0-.039q.032-.249.055-.506c0-.012,0-.024,0-.036s0-.029,0-.043c0-.03,0-.061.006-.091.011-.146.021-.293.027-.443,0-.011,0-.021,0-.032s0-.036,0-.053c.006-.16.009-.32.009-.483q0-.068,0-.136A.281.281,0,0,0,126.025,259.572Z" transform="translate(-112.01 -253.417)" fill="#1d1d1e"/>
      <path id="Path_779" data-name="Path 779" d="M334.149,282.257h-7.24a9.505,9.505,0,0,0,.614,2.212,3.341,3.341,0,0,0,1.669,1.951h5.313l.02-.008c.029-.011.058-.023.087-.036s.043-.021.064-.032.056-.029.083-.045.043-.026.064-.039.054-.035.08-.054l.063-.046c.027-.02.053-.041.079-.063l.061-.052c.026-.023.052-.047.078-.072l.059-.057c.026-.026.051-.054.077-.082s.037-.041.056-.062.051-.062.077-.093l.051-.064c.028-.036.054-.073.082-.111l.043-.059c.035-.051.07-.1.1-.159l.016-.025c.039-.063.077-.129.115-.2.012-.021.023-.044.035-.066.025-.047.051-.094.076-.143.014-.028.028-.057.042-.086.021-.044.043-.088.064-.133s.029-.065.043-.1l.031-.072c.009-.021.018-.041.027-.062l.014-.034c.006-.015.012-.032.018-.047q.047-.118.092-.242l.026-.071c.036-.1.07-.206.1-.313,0-.006,0-.012.006-.019s0-.016.007-.024q.083-.272.152-.562c0-.01.005-.019.008-.029s0-.022.007-.033c.01-.042.017-.087.027-.129.027-.125.055-.249.078-.378l.008-.036c0-.011,0-.023.005-.034.012-.065.021-.134.031-.2h-2.613Z" transform="translate(-265.83 -274.823)" fill="#1d1d1e"/>
    </g>
    <g id="Group_1146" data-name="Group 1146" transform="translate(76.297 52.089)">
      <path id="Path_780" data-name="Path 780" d="M269.718,183.155a.588.588,0,0,1-.553-.491H267.2a.723.723,0,0,1-.141-.018.739.739,0,0,1-.4-.222.817.817,0,0,1-.189-.794l.607-2.043.075-.252a.79.79,0,0,1,.353-.456.741.741,0,0,1,.194-.082l1.4-.359.026,2.654-.047-4.865-.029-2.98-.019-.146-.087-.35-3.072-12.44a2.84,2.84,0,0,0-2.406-2.178l-6.3-.716-2.24-.255-8.378-.952-2.34-.266a.562.562,0,0,0-.21.016l-.588.162-10.02,2.756-.028.008a.6.6,0,0,0-.433.588l-.672,14.878-.1,2.228-.134,2.964-.017.389,2.553-.062.689-.017,1.811-.044-.011.015h3.029l.072,0,.039,0,.075.008.074.012.074.016.035.007.02.008a1.561,1.561,0,0,1,.241.091l.016.006.02.012a1.9,1.9,0,0,1,.234.139l.012.007.018.015a2.385,2.385,0,0,1,.236.195l.011.009.041.042c.026.026.051.051.077.078l.058.064c.025.028.049.056.073.085l.025.029.027.036q.047.059.093.122l.046.064c.035.05.069.1.1.154l.024.036,0,.007c.013.02.024.043.037.064.043.072.086.145.127.221l.031.058q.077.148.15.306l.01.02.006.016,0,.008q.108.243.2.51l.015.041q.1.28.184.583c0,.01.005.02.008.03q.081.295.147.61l.012.057c.073.354.13.724.172,1.108,0,.031.007.061.01.093q.022.215.037.435c0,.008,0,.016,0,.025s0,.02,0,.03q.022.342.026.695c0,.012,0,.024,0,.036,0,.045,0,.09,0,.136,0,.163,0,.323-.009.483,0,.017,0,.036,0,.053s0,.021,0,.032q-.011.271-.033.534c0,.014,0,.029,0,.043s0,.024,0,.036q-.022.256-.054.505c0,.013,0,.026,0,.039s0,.026-.006.039q-.033.247-.076.486s0,.008,0,.012,0,.023-.005.034-.005.024-.008.036,0,.01,0,.015h26.929a.6.6,0,0,0,.581-.608v-4.128A.6.6,0,0,0,269.718,183.155ZM264.085,183l-7.02.064-2.32.021-1.08.01-.408,0a.76.76,0,0,1-.5-.183.814.814,0,0,1-.244-.35l-.027-.077-.26-.733-.773-2.176-.013-.036-.009-.027a.839.839,0,0,1,.171-.848.775.775,0,0,1,.574-.257l2.864.044,2.239.034.258,0,7.013.106a.751.751,0,0,1,.445.157.833.833,0,0,1,.314.8l-.194,1.161-.268,1.6a.838.838,0,0,1-.114.3.792.792,0,0,1-.333.3.748.748,0,0,1-.3.074Zm-13.817-.082a.781.781,0,0,1-.485.168h-3.434a.779.779,0,0,1-.417-.124.856.856,0,0,1-.4-.712l0-.288,0-.206-.036-2.212,0-.151a.827.827,0,0,1,.932-.856l2.446.38a.785.785,0,0,1,.287.113c.022.013.045.025.066.04a.841.841,0,0,1,.272.348l.052.125.9,2.148.027.064.058.139a.876.876,0,0,1,.048.53A.866.866,0,0,1,250.268,182.917Zm-2.618-24.624,7.292.548,2.24.168,6.187.465a1.644,1.644,0,0,1,1.453,1.262l2.4,9.556a1.681,1.681,0,0,1-1.612,2.13l-8.36-.229-2.239-.061-5.88-.161a1.649,1.649,0,0,1-1.558-1.419l-1.638-10.286A1.67,1.67,0,0,1,247.65,158.293Zm-11.618,1.183,6.039-1.314a1.1,1.1,0,0,1,1.3.936l1.4,9.069a1.131,1.131,0,0,1-1.014,1.323,1.071,1.071,0,0,1-.924-.437l-1.892-2.535a1.071,1.071,0,0,0-.969-.434l-3.469.363a1.11,1.11,0,0,1-1.2-1.1l-.143-4.716A1.134,1.134,0,0,1,236.032,159.476Zm16.257,27.076a.375.375,0,0,1-.366.383h-3.452a.373.373,0,0,1-.365-.368c0-.005,0-.01,0-.015v-1.533a.375.375,0,0,1,.366-.383h3.452a.375.375,0,0,1,.366.383v1.533Zm17.259-1.533v1.533a.375.375,0,0,1-.366.383H265.73a.375.375,0,0,1-.366-.383v-1.533a.4.4,0,0,1,.015-.1.368.368,0,0,1,.351-.281h3.452a.364.364,0,0,1,.326.212A.391.391,0,0,1,269.548,185.019Z" transform="translate(-232.01 -155.939)" fill="#e6e6e6"/>
      <path id="Path_781" data-name="Path 781" d="M374.337,259.146a.684.684,0,0,1-.009-.093v.035A.247.247,0,0,0,374.337,259.146Z" transform="translate(-337.191 -232.475)" fill="#e6e6e6"/>
    </g>
    <g id="Group_1147" data-name="Group 1147" transform="translate(79.45 54.288)" opacity="0.77">
      <path id="Path_782" data-name="Path 782" d="M252.3,165.429a1.1,1.1,0,0,0-1.3-.936l-6.039,1.314a1.133,1.133,0,0,0-.869,1.155l.143,4.716a1.11,1.11,0,0,0,1.2,1.1l3.469-.363a1.071,1.071,0,0,1,.969.434l1.892,2.535a1.072,1.072,0,0,0,.924.437A1.131,1.131,0,0,0,253.7,174.5Z" transform="translate(-244.093 -164.469)" fill="#1a1a1a"/>
      <path id="Path_783" data-name="Path 783" d="M306.59,177.057l-2.4-9.556a1.644,1.644,0,0,0-1.453-1.263l-6.187-.465-2.24-.168-7.292-.548a1.67,1.67,0,0,0-1.717,1.973l1.638,10.286a1.649,1.649,0,0,0,1.558,1.419l5.88.161,2.239.061,8.36.229A1.681,1.681,0,0,0,306.59,177.057Z" transform="translate(-274.533 -164.902)" fill="#1a1a1a"/>
    </g>
    <path id="Path_784" data-name="Path 784" d="M319.867,243.468a.752.752,0,0,0-.445-.157l-7.013-.106-.257,0-2.24-.034-2.864-.044a.743.743,0,0,0-.172.02.76.76,0,0,0-.4.237.839.839,0,0,0-.171.848l.009.027.013.036.773,2.176.26.733.027.077a.815.815,0,0,0,.244.35.76.76,0,0,0,.5.183l.408,0,1.08-.01,2.32-.021,7.02-.064.015,0a.748.748,0,0,0,.3-.074.792.792,0,0,0,.333-.3.833.833,0,0,0,.114-.3l.268-1.6.194-1.161A.834.834,0,0,0,319.867,243.468Z" transform="translate(-210.583 -168.562)" fill="#4d4d4d"/>
    <g id="Group_1148" data-name="Group 1148" transform="translate(89.777 74.588)">
      <path id="Path_785" data-name="Path 785" d="M363.975,267.482a.364.364,0,0,0-.326-.212H360.2a.369.369,0,0,0-.351.281.405.405,0,0,0-.015.1v1.533a.375.375,0,0,0,.366.383h3.452a.375.375,0,0,0,.366-.383v-1.533A.4.4,0,0,0,363.975,267.482Z" transform="translate(-339.957 -261.072)" fill="#999"/>
      <path id="Path_786" data-name="Path 786" d="M297.507,267.27h-3.452a.375.375,0,0,0-.366.383v1.533c0,.005,0,.01,0,.016a.373.373,0,0,0,.365.368h3.452a.375.375,0,0,0,.366-.383v-1.533A.375.375,0,0,0,297.507,267.27Z" transform="translate(-291.074 -261.072)" fill="#999"/>
      <path id="Path_787" data-name="Path 787" d="M364.586,247.433a.718.718,0,0,0,.141.018h1.965c0-.018-.009-.036-.014-.054a.245.245,0,0,1-.009-.057v-.129l-.013-1.332-.026-2.654-1.4.359a.747.747,0,0,0-.194.082.79.79,0,0,0-.353.456l-.075.252L364,246.417a.817.817,0,0,0,.189.794A.74.74,0,0,0,364.586,247.433Z" transform="translate(-343.012 -243.225)" fill="#999"/>
      <path id="Path_788" data-name="Path 788" d="M287.961,248.129a.78.78,0,0,0,.485-.168.864.864,0,0,0,.307-.493.878.878,0,0,0-.048-.53l-.058-.139-.027-.064-.9-2.148-.052-.125a.841.841,0,0,0-.272-.348c-.021-.015-.044-.027-.066-.04a.785.785,0,0,0-.287-.113l-2.446-.38a.827.827,0,0,0-.932.856l0,.151.036,2.212,0,.206,0,.288a.855.855,0,0,0,.4.712.78.78,0,0,0,.417.124h3.433Z" transform="translate(-283.669 -243.482)" fill="#999"/>
    </g>
    <path id="Path_789" data-name="Path 789" d="M103.533,121.111l-37.5,13.821v18.785l1.741-.028,2.438-.039.805-.013,4.742-.076,1.333-.021.75-.012,2.185-.035,2.385-.038,4.257-.068,7.9-.127.615-.01,4.06-.065,4.244-.068h.049l2.237-.036V120.286Z" transform="translate(-33.045 -77.387)" fill="#1d90ca"/>
    <g id="Group_1149" data-name="Group 1149" transform="translate(61.98 94.019)">
      <path id="Path_790" data-name="Path 790" d="M180.977,318.612h4.885a3.315,3.315,0,1,1,0,6.619H183.2v3.7h-2.223Zm4.587,1.887H183.2v2.845h2.364a1.427,1.427,0,1,0,0-2.845Z" transform="translate(-180.977 -318.612)" fill="#fff"/>
      <path id="Path_791" data-name="Path 791" d="M215.082,327.148h-4.665l-.658,1.778h-2.442l4.039-10.315h2.787l4.024,10.315H215.74Zm-4.071-1.9h3.46l-1.722-4.732Z" transform="translate(-200.444 -318.611)" fill="#fff"/>
      <path id="Path_792" data-name="Path 792" d="M245.961,324.705l-4.023-6.093h2.536l2.6,4.145,2.568-4.145h2.536l-3.992,6.093v4.222h-2.223Z" transform="translate(-226.031 -318.612)" fill="#fff"/>
    </g>
    <rect id="Rectangle_356" data-name="Rectangle 356" width="21.34" height="1.363" transform="translate(32.463 98.481)" fill="#fff"/>
    <rect id="Rectangle_357" data-name="Rectangle 357" width="21.34" height="1.363" transform="translate(93.838 98.481)" fill="#fff"/>
    <path id="Path_793" data-name="Path 793" d="M209.882,519.1l1.814,3.152,3.675.788-2.554,2.621.457,3.754-3.393-1.647-3.393,1.647.457-3.754-2.554-2.621,3.675-.788Z" transform="translate(-135.303 -373.403)" fill="#f8971d"/>
    <g id="Group_1150" data-name="Group 1150" transform="translate(55.998 113.901)">
      <path id="Path_794" data-name="Path 794" d="M156.894,420.11H154.22V396.4h4.251c2.263,0,3.257.982,3.257,3.217v8.195c0,2.133-1.1,3.217-3.257,3.217h-1.577v9.076Zm1.131-21.368h-1.131V408.7h1.131c.686,0,.994-.338.994-1.016v-7.924C159.02,399.047,158.711,398.742,158.025,398.742Z" transform="translate(-154.22 -396.236)" fill="#008cd1"/>
      <path id="Path_795" data-name="Path 795" d="M193.414,396.4v21.3h2.845v2.4h-5.52V396.4Z" transform="translate(-181.21 -396.236)" fill="#008cd1"/>
      <path id="Path_796" data-name="Path 796" d="M226.278,417.028c0,2.167-1.063,3.251-3.257,3.251h-1.3c-2.194,0-3.257-1.084-3.257-3.251V396.4h2.674v20.521c0,.677.308,1.016,1.028,1.016h.411c.72,0,1.028-.339,1.028-1.016V396.4h2.674Z" transform="translate(-201.698 -396.236)" fill="#008cd1"/>
      <path id="Path_797" data-name="Path 797" d="M264.5,411.089v5.486c0,2.167-1.063,3.217-3.257,3.217h-1.2c-2.16,0-3.223-1.05-3.223-3.183v-6.5h2.639v6.366c0,.677.309.982.994.982h.377c.686,0,.994-.3.994-.982v-5.046a1.972,1.972,0,0,0-.857-1.9l-2.537-2a3.789,3.789,0,0,1-1.611-3.522v-5.046c0-2.167,1.063-3.217,3.257-3.217h1.131c2.194,0,3.257,1.05,3.257,3.183v6.1H261.79v-5.96c0-.677-.274-1.016-.96-1.016h-.343c-.686,0-.994.338-.994,1.016v4.639a1.972,1.972,0,0,0,.857,1.9l2.468,1.93A3.721,3.721,0,0,1,264.5,411.089Z" transform="translate(-230.047 -395.748)" fill="#008cd1"/>
    </g>
    <path id="Path_798" data-name="Path 798" d="M274.679,514.519,277,516.845l3.387-.161-1.6,2.871,1.285,3.163-3.344-.652-2.565,2.216-.489-3.374-2.843-1.693,3.014-1.533Z" transform="translate(-184.403 -370.003)" fill="#f8971d"/>
    <path id="Path_799" data-name="Path 799" d="M149.085,514.519l.836,3.163,3.014,1.533-2.843,1.693-.489,3.374-2.565-2.216-3.343.652,1.285-3.163-1.605-2.871,3.387.161Z" transform="translate(-90.206 -370.003)" fill="#f8971d"/>
  </g>
</svg>
