<?xml version="1.0" encoding="UTF-8" standalone="no"?>
<!-- pricezone loader -->
<svg xmlns="http://www.w3.org/2000/svg" width="26.076" height="26.075" viewBox="0 0 26.076 26.075">
    <style>
@keyframes pz-loader-a0_t { 0% { transform: translate(13.037px,13.037px) rotate(22deg) translate(-13.037px,-13.037px); } 23.5294% { transform: translate(13.037px,13.037px) rotate(0deg) translate(-13.037px,-13.037px); } 100% { transform: translate(13.037px,13.037px) rotate(0deg) translate(-13.037px,-13.037px); } }
@keyframes pz-loader-Path_590_t { 0% { transform: translate(683.059px,383.676px) scale(0,0) translate(-683.059px,-383.676px); } 3.8823% { transform: translate(683.059px,383.676px) scale(0,0) translate(-683.059px,-383.676px); } 15.647% { transform: translate(683.059px,383.676px) scale(1,1) translate(-683.059px,-383.676px); } 47.0588% { transform: translate(683.059px,383.676px) scale(1,1) translate(-683.059px,-383.676px); } 58.8235% { transform: translate(683.059px,383.676px) scale(0,0) translate(-683.059px,-383.676px); } 100% { transform: translate(683.059px,383.676px) scale(0,0) translate(-683.059px,-383.676px); } }
@keyframes pz-loader-Path_592_o { 0% { opacity: 0; } 15.6471% { opacity: 0; } 23.5294% { opacity: 1; } 41.1765% { opacity: 1; } 47.0588% { opacity: 0; } 100% { opacity: 0; } }
@keyframes pz-loader-Path_594_t { 0% { transform: translate(683.058px,383.676px) scale(0,0) translate(-683.058px,-383.676px); animation-timing-function: cubic-bezier(0.42,0,1,1); } 11.7647% { transform: translate(683.058px,383.676px) scale(1,1) translate(-683.058px,-383.676px); animation-timing-function: cubic-bezier(0.42,0,0.58,1); } 52.9411% { transform: translate(683.058px,383.676px) scale(1,1) translate(-683.058px,-383.676px); } 58.8235% { transform: translate(683.058px,383.676px) scale(0.6,0.6) translate(-683.058px,-383.676px); } 100% { transform: translate(683.058px,383.676px) scale(0.6,0.6) translate(-683.058px,-383.676px); } }
@keyframes pz-loader-Path_594_o { 0% { opacity: 1; } 52.9412% { opacity: 1; animation-timing-function: cubic-bezier(0,0,0.58,1); } 64.7059% { opacity: 0; } 100% { opacity: 0; } }
@keyframes pz-loader-a1_t { 0% { transform: translate(12.730859px,13.01px) rotate(0deg); } 64.7058% { transform: translate(12.730859px,13.01px) rotate(0deg); } 76.4705% { transform: translate(12.730859px,13.01px) rotate(180deg); } 88.2352% { transform: translate(12.730859px,13.01px) rotate(360deg); } 100% { transform: translate(12.730859px,13.01px) rotate(540deg); } }
@keyframes pz-loader-a1_o { 0% { opacity: 0; } 58.8235% { opacity: 0; } 64.7059% { opacity: 1; } 100% { opacity: 1; } }
    </style>
    <g transform="translate(13.037,13.037) rotate(22) translate(-13.037,-13.037)" style="animation: 1.7s linear infinite both pz-loader-a0_t;">
        <g id="pz-loader-pz-loader" data-name="Group 763" transform="translate(13.037,13.037) translate(-683.058,-383.676)">
            <path id="pz-loader-Path_590" data-name="Path 590" d="M683.059,374.194C677.822,374.194,673.577,378.439,673.577,383.676C673.577,388.913,677.822,393.158,683.059,393.158C688.296,393.158,692.541,388.913,692.541,383.676C692.535,378.442,688.293,374.2,683.059,374.194M683.059,373.009C688.95,373.009,693.726,377.785,693.726,383.676C693.726,389.567,688.95,394.343,683.059,394.343C677.168,394.343,672.392,389.567,672.392,383.676C672.392,377.785,677.168,373.009,683.059,373.009Z" fill="#507b8f" transform="translate(683.059,383.676) scale(0,0) translate(-683.059,-383.676)" style="animation: 1.7s linear infinite both pz-loader-Path_590_t;"/>
            <path id="pz-loader-Path_591" data-name="Path 591" d="M683.653,378.513C683.655,378.561,683.651,378.608,683.641,378.655L683.641,378.477C683.65,378.487,683.655,378.5,683.653,378.513Z" fill="#507b8f" transform="translate(683.647,378.566) translate(-683.647,-378.566)"/>
            <path id="pz-loader-Path_592" data-name="Path 592" d="M687.849,382.377L685.265,382.827C684.993,382.108,684.387,381.568,683.641,381.381L683.641,376.308C683.637,375.982,683.374,375.72,683.048,375.716C682.722,375.717,682.457,375.982,682.456,376.308L682.456,378.063C681.381,378.223,680.333,378.525,679.338,378.963C679.125,379.063,678.924,379.153,678.722,379.263C678.627,378.963,678.509,378.658,678.39,378.363C678.261,378.06,677.912,377.917,677.608,378.043C677.309,378.169,677.166,378.512,677.288,378.813C677.418,379.145,677.549,379.477,677.655,379.821C676.843,380.267,676.056,380.758,675.297,381.29C675.167,381.38,675.079,381.519,675.052,381.675C675.026,381.831,675.063,381.991,675.155,382.12C675.264,382.28,675.447,382.374,675.641,382.369C675.759,382.366,675.874,382.329,675.972,382.262C676.624,381.812,677.3,381.385,677.987,380.994C678.163,381.67,678.282,382.36,678.343,383.056L676.126,383.056C675.799,383.057,675.535,383.322,675.534,383.649C675.538,383.975,675.8,384.238,676.126,384.242L678.39,384.242C678.358,384.869,678.271,385.491,678.13,386.103C677.347,385.759,676.589,385.391,675.854,384.988C675.716,384.909,675.553,384.889,675.4,384.934C675.248,384.979,675.121,385.084,675.048,385.225C674.894,385.513,675,385.872,675.285,386.031C676.108,386.479,676.955,386.883,677.821,387.24C677.675,387.697,677.501,388.145,677.3,388.58C677.232,388.721,677.224,388.884,677.277,389.031C677.331,389.178,677.441,389.298,677.584,389.362C677.662,389.399,677.747,389.419,677.833,389.421C678.065,389.419,678.276,389.286,678.378,389.078C678.59,388.628,678.772,388.165,678.924,387.691C679.054,387.738,679.196,387.797,679.338,387.845C680.349,388.186,681.395,388.416,682.456,388.532L682.456,390.7C682.454,390.858,682.516,391.009,682.628,391.121C682.739,391.232,682.89,391.294,683.048,391.293C683.374,391.289,683.637,391.026,683.641,390.7L683.641,385.98C684.579,385.742,685.278,384.959,685.407,384L688.05,383.537C688.37,383.475,688.584,383.172,688.536,382.85C688.508,382.696,688.42,382.559,688.291,382.471C688.162,382.382,688.003,382.348,687.849,382.377ZM679.824,380.042C680.665,379.674,681.55,379.415,682.456,379.271L682.456,381.393C681.639,381.602,681,382.237,680.785,383.052L679.54,383.052C679.446,382.162,679.292,381.278,679.078,380.409C679.327,380.279,679.576,380.16,679.824,380.042ZM679.718,386.727C679.564,386.668,679.398,386.608,679.244,386.549C679.427,385.791,679.538,385.017,679.576,384.238L680.761,384.238C680.959,385.088,681.615,385.755,682.461,385.968L682.461,387.331C681.529,387.222,680.61,387.019,679.718,386.727ZM683.641,384.712C683.464,384.813,683.264,384.866,683.06,384.866C682.849,384.867,682.641,384.809,682.46,384.7C682.28,384.585,682.133,384.426,682.033,384.238C681.929,384.071,681.875,383.878,681.879,383.681C681.88,383.457,681.946,383.239,682.069,383.052C682.168,382.894,682.302,382.76,682.46,382.661C682.641,382.552,682.849,382.495,683.06,382.495C683.598,382.496,684.068,382.859,684.205,383.38C684.341,383.9,684.11,384.447,683.641,384.712Z" fill="#507b8f" opacity="0" transform="translate(681.76,383.505) translate(-681.76,-383.505)" style="animation: 1.7s linear infinite both pz-loader-Path_592_o;"/>
            <g id="pz-loader-Path_579" data-name="Path 579" transform="translate(683.058,383.676) translate(-683.058,-383.676)">
                <path id="pz-loader-Path_593" data-name="Path 593" d="M683.059,370.639C690.259,370.64,696.095,376.477,696.095,383.677C696.095,390.877,690.258,396.713,683.058,396.713C675.858,396.713,670.021,390.876,670.021,383.676C670.022,376.476,675.859,370.639,683.059,370.639Z" fill="none" transform="translate(683.058,383.676) translate(-683.058,-383.676)"/>
                <path id="pz-loader-Path_594" data-name="Path 594" d="M683.059,371.824C678.265,371.824,673.944,374.712,672.109,379.14C670.275,383.569,671.289,388.667,674.678,392.057C678.068,395.446,683.166,396.46,687.595,394.626C692.023,392.791,694.911,388.47,694.911,383.676C694.903,377.134,689.601,371.832,683.059,371.824M683.059,370.639C690.259,370.64,696.095,376.477,696.095,383.677C696.095,390.877,690.258,396.713,683.058,396.713C675.858,396.713,670.021,390.876,670.021,383.676C670.022,376.476,675.859,370.639,683.059,370.639Z" fill="#507b8f" stroke-dasharray="0" stroke-dashoffset="0" opacity="1" transform="translate(683.058,383.676) scale(0,0) translate(-683.058,-383.676)" style="animation: 1.7s linear infinite both pz-loader-Path_594_t, 1.7s linear infinite both pz-loader-Path_594_o;"/>
            </g>
        </g>
        <path fill="#507b8f" fill-opacity="1" opacity="0" stroke="none" d="M7.40876,2.639C7.0327,3.70912,6.41125,4.67759,5.54442,5.54442C4.01337,7.07547,2.16523,7.841,1.90735e-06,7.841C-2.16523,7.841,-4.01337,7.07547,-5.54442,5.54442C-6.41125,4.67759,-7.0327,3.70912,-7.40876,2.639L-6.33474,2.639C-6.0008,3.4402,-5.50166,4.17298,-4.83732,4.83732C-3.50153,6.17311,-1.88909,6.841,1.90735e-06,6.841C1.88909,6.841,3.50153,6.17311,4.83732,4.83732C5.50166,4.17298,6.0008,3.4402,6.33474,2.639ZM6.98718,-3.607C6.62285,-4.3011,6.14193,-4.94691,5.54442,-5.54442C4.01337,-7.07547,2.16523,-7.841,-1.90735e-06,-7.841C-2.16523,-7.841,-4.01337,-7.07547,-5.54442,-5.54442C-6.14193,-4.94691,-6.62285,-4.3011,-6.98718,-3.607L-5.82992,-3.607C-5.55509,-4.04032,-5.22422,-4.45042,-4.83732,-4.83732C-3.50153,-6.17311,-1.88909,-6.841,-1.90735e-06,-6.841C1.88909,-6.841,3.50153,-6.17311,4.83732,-4.83732C5.22422,-4.45042,5.55509,-4.04032,5.82992,-3.607Z" fill-rule="evenodd" stroke-linecap="round" stroke-linejoin="round" transform="translate(12.7309,13.01)" style="animation: 1.7s linear infinite both pz-loader-a1_t, 1.7s linear infinite both pz-loader-a1_o;"/>
    </g>
</svg>
