<?xml version="1.0" encoding="UTF-8" standalone="no"?>
<!-- pz approve animation-->
<svg xmlns="http://www.w3.org/2000/svg" viewBox="0 0 590.47 588.57">
    <style>
@keyframes pz-review-icoLayer_2_t { 0% { transform: translate(295.224206px,294.273858px) rotate(30.9deg) scale(0,0) translate(-295.224206px,-294.273858px); } 37.5% { transform: translate(295.224206px,294.273858px) rotate(0deg) scale(0.84,0.84) translate(-295.224206px,-294.273858px); } 50% { transform: translate(295.224206px,294.273858px) rotate(0deg) scale(0.74,0.74) translate(-295.224206px,-294.273858px); } 100% { transform: translate(295.224206px,294.273858px) rotate(0deg) scale(0.74,0.74) translate(-295.224206px,-294.273858px); } }
@keyframes pz-review-icoPath_592_t { 0% { transform: translate(263.519043px,288.81px) rotate(0deg) translate(-263.519043px,-288.81px); } 25% { transform: translate(263.519043px,288.81px) rotate(0deg) translate(-263.519043px,-288.81px); } 37.5% { transform: translate(263.519043px,288.81px) rotate(-6deg) translate(-263.519043px,-288.81px); } 50% { transform: translate(263.519043px,288.81px) rotate(0deg) translate(-263.519043px,-288.81px); } 100% { transform: translate(263.519043px,288.81px) rotate(0deg) translate(-263.519043px,-288.81px); } }
@keyframes pz-review-icoa0_do { 0% { stroke-dashoffset: 98.3px; } 50% { stroke-dashoffset: 98.3px; } 75% { stroke-dashoffset: 0px; } 100% { stroke-dashoffset: 0px; } }
@keyframes pz-review-icoa1_do { 0% { stroke-dashoffset: 98.3px; } 75% { stroke-dashoffset: 98.3px; } 100% { stroke-dashoffset: 0px; } }
    </style>
    <g id="pz-review-icoLayer_2" data-name="Layer 2" transform="translate(295.224,294.274) rotate(30.9) scale(0,0) translate(-295.224,-294.274)" style="animation: 0.8s linear both pz-review-icoLayer_2_t;">
        <g id="pz-review-icoLayer_1-2" data-name="Layer 1" transform="translate(295.224,294.274) translate(-295.224,-294.274)">
            <g id="pz-review-icoGroup_946" data-name="Group 946" transform="translate(295.224,294.274) translate(-295.224,-294.274)">
                <path id="pz-review-icoPath_591" data-name="Path 591" d="M306,176.76C306.041,177.83,305.95,178.902,305.73,179.95L305.73,175.95C305.937,176.166,306.036,176.463,306,176.76Z" fill="#507b8f" transform="translate(305.87,177.95) translate(-305.87,-177.95)"/>
                <path id="pz-review-icoPath_592" data-name="Path 592" d="M415.63,274.14C414.31,266.96,407.13,261.91,400.21,263.51L342.21,273.61C336.112,257.472,322.494,245.345,305.76,241.15L305.76,127.27C305.631,119.976,299.735,114.101,292.44,114C285.109,114.022,279.172,119.959,279.15,127.29L279.15,166.69C255.02,170.269,231.477,177.062,209.15,186.89C204.37,189.02,199.86,191.15,195.32,193.55C193.19,186.89,190.54,179.97,187.87,173.33C184.976,166.532,177.152,163.326,170.32,166.14C163.606,168.974,160.405,176.67,163.13,183.43C166.05,190.88,168.99,198.33,171.37,206.06C153.135,216.081,135.465,227.098,118.44,239.06C115.55,241.069,113.577,244.144,112.956,247.609C112.335,251.073,113.117,254.642,115.13,257.53L115.25,257.7C117.7,261.297,121.81,263.403,126.16,263.29C128.817,263.228,131.399,262.394,133.59,260.89C148.23,250.79,163.4,241.2,178.82,232.42C182.777,247.599,185.453,263.083,186.82,278.71L137.05,278.71C129.719,278.732,123.782,284.669,123.76,292C123.867,299.3,129.75,305.197,137.05,305.32L187.87,305.32C187.13,319.377,185.166,333.344,182,347.06C164.43,339.34,147.41,331.06,130.91,322.06C127.916,320.322,124.352,319.851,121.009,320.75C117.665,321.649,114.819,323.845,113.1,326.85L112.81,327.38C109.402,333.86,111.758,341.875,118.13,345.48C136.609,355.542,155.617,364.601,175.07,372.62C171.789,382.877,167.882,392.922,163.37,402.7C161.854,405.802,161.635,409.38,162.761,412.645C163.886,415.909,166.264,418.591,169.37,420.1L169.69,420.25C171.444,421.069,173.346,421.521,175.28,421.58C180.486,421.53,185.221,418.552,187.52,413.88C192.268,403.774,196.36,393.372,199.77,382.74C202.69,383.8,205.88,385.12,209.07,386.2C231.778,393.851,255.249,399.021,279.07,401.62L279.07,450.31C279.035,453.806,280.391,457.172,282.838,459.668C285.286,462.164,288.624,463.586,292.12,463.62L292.36,463.62C299.702,463.598,305.648,457.652,305.67,450.31L305.67,344.39C326.731,339.09,342.454,321.518,345.39,300L404.72,289.61C411.919,288.218,416.735,281.389,415.63,274.14ZM220.06,211.14C238.943,202.888,258.799,197.071,279.15,193.83L279.15,241.47C260.811,246.153,246.45,260.407,241.63,278.71L213.68,278.71C211.582,258.72,208.117,238.897,203.31,219.38C208.91,216.41,214.49,213.74,220.06,211.09ZM279.15,374.77C258.259,372.311,237.667,367.768,217.68,361.21C214.23,359.89,210.5,358.54,207.04,357.21C211.148,340.189,213.642,322.819,214.49,305.33L241.09,305.33C245.52,324.373,260.201,339.355,279.15,344.17ZM305.75,315.98C301.787,318.233,297.309,319.422,292.75,319.43C287.973,319.47,283.278,318.183,279.19,315.71C275.155,313.135,271.852,309.563,269.6,305.34C267.262,301.595,266.061,297.254,266.14,292.84C266.157,287.818,267.641,282.91,270.41,278.72C272.628,275.162,275.632,272.158,279.19,269.94C283.283,267.479,287.974,266.189,292.75,266.21C304.837,266.222,315.395,274.386,318.449,286.08C321.504,297.775,316.287,310.058,305.75,315.98Z" fill="#55b65f" transform="translate(263.519,288.81) translate(-263.519,-288.81)" style="animation: 0.8s linear both pz-review-icoPath_592_t;"/>
                <g id="pz-review-icoPath_579" data-name="Path 579" transform="translate(295.224,294.274) translate(-295.224,-294.274)">
                    <path d="M292.68,79.81C175.3,79.81,79.83,175.31,79.83,292.67C79.83,410.03,175.3,505.55,292.68,505.55C320.075,505.587,347.217,500.306,372.6,490C372.26,486.52,372.09,483,372.09,479.41C372.145,419.124,420.994,370.262,481.28,370.19C484.48,370.19,487.643,370.33,490.77,370.61C500.557,345.792,505.568,319.348,505.54,292.67C505.54,175.31,410,79.81,292.68,79.81ZM292.68,26.6L292.68,26.6C146,26.61,26.6,146,26.6,292.67C26.6,439.34,146,558.75,292.68,558.75C326.194,558.785,359.41,552.453,390.56,540.09C385.6,532.685,381.57,524.699,378.56,516.31C351.162,526.815,322.063,532.184,292.72,532.15C160.46,532.15,53.27,424.94,53.27,292.67C53.27,160.4,160.42,53.21,292.68,53.21C424.94,53.21,532.14,160.42,532.14,292.67C532.169,321.202,527.089,349.509,517.14,376.25C525.566,379.188,533.596,383.154,541.05,388.06C552.771,357.624,558.765,325.284,558.73,292.67C558.74,146,439.38,26.6,292.68,26.6Z" fill="none" transform="translate(292.665,292.675) translate(-292.665,-292.675)"/>
                    <path d="M562.44,406.42C577.625,370.422,585.422,331.74,585.37,292.67C585.37,131,454.31,0,292.68,0C131.05,0,0,131,0,292.67C0,454.34,131,585.35,292.68,585.35C332.739,585.403,372.38,577.203,409.13,561.26C452.499,599.513,518.179,597.294,558.867,556.2C599.555,515.106,601.122,449.407,562.44,406.42ZM292.68,558.75C146,558.75,26.6,439.39,26.6,292.67C26.6,145.95,146,26.61,292.68,26.61L292.68,26.61C439.38,26.61,558.74,145.98,558.74,292.68C558.775,325.294,552.781,357.634,541.06,388.07C533.606,383.164,525.576,379.198,517.15,376.26C527.099,349.519,532.179,321.212,532.15,292.68C532.15,160.43,424.94,53.22,292.69,53.22C160.44,53.22,53.23,160.42,53.23,292.67C53.23,424.92,160.42,532.15,292.68,532.15C322.023,532.184,351.122,526.815,378.52,516.31C381.53,524.699,385.56,532.685,390.52,540.09C359.382,552.448,326.181,558.78,292.68,558.75ZM372.6,490C347.219,500.316,320.077,505.607,292.68,505.58C175.3,505.58,79.83,410.08,79.83,292.7C79.83,175.32,175.3,79.81,292.68,79.81C410.06,79.81,505.54,175.31,505.54,292.67C505.568,319.348,500.557,345.792,490.77,370.61C487.643,370.33,484.48,370.19,481.28,370.19C421.006,370.262,372.162,419.106,372.09,479.38C372.09,483,372.26,486.49,372.6,490ZM481.28,568.6C462.54,568.621,444.274,562.709,429.1,551.71C421.47,546.182,414.754,539.491,409.2,531.88C398.349,517.065,392.376,499.242,392.11,480.88C392.11,480.39,392.11,479.88,392.11,479.41C392.165,430.175,432.065,390.275,481.3,390.22L481.88,390.22C500.22,390.314,518.08,396.093,533,406.76C540.659,412.248,547.408,418.906,553,426.49C572.985,453.564,576.021,489.585,560.848,519.621C545.676,549.658,514.881,568.59,481.23,568.57Z" fill="#55b65f" transform="translate(295.224,294.274) translate(-295.224,-294.274)"/>
                </g>
            </g>
            <path d="M470.81,518.66C468.445,518.661,466.175,517.73,464.49,516.07L432.01,484.07C429.718,481.814,428.804,478.506,429.612,475.394C430.012,473.853,430.804,472.475,431.877,471.373C432.973,470.249,434.362,469.411,435.927,468.979C439.027,468.122,442.348,468.984,444.64,471.24L470.82,497L526.29,442.63C528.587,440.379,531.911,439.525,535.009,440.389C538.106,441.253,540.508,443.704,541.309,446.819C542.109,449.934,541.187,453.239,538.89,455.49L477.11,516.05C475.434,517.713,473.171,518.65,470.81,518.66Z" fill="#507b8f" display="none" transform="translate(485.458,479.359) translate(-485.458,-479.359)"/>
        </g>
    </g>
    <path d="M4.55431,2.3348L28.5543,26.3348L74.5543,-18.6652" stroke="#55b65f" fill="none" stroke-linecap="round" stroke-width="14.6" stroke-linejoin="round" opacity="0.67" stroke-dasharray="98.3" stroke-dashoffset="98.3" transform="translate(396.446,427.665)" style="animation: 0.8s linear both pz-review-icoa0_do;"/>
    <path d="M4.55431,2.3348L28.5543,26.3348L74.5543,-18.6652" stroke="#55b65f" fill="none" stroke-linecap="round" stroke-width="14.6" stroke-linejoin="round" opacity="1" stroke-dasharray="98.3" stroke-dashoffset="98.3" transform="translate(396.446,427.665)" style="animation: 0.8s linear both pz-review-icoa1_do;"/>
</svg>
