<svg id="Layer_1" data-name="Layer 1" xmlns="http://www.w3.org/2000/svg" xmlns:xlink="http://www.w3.org/1999/xlink" viewBox="0 0 100 100"><defs><style>.cls-1{opacity:0.53;}.cls-1,.cls-5,.cls-8{isolation:isolate;}.cls-2{stroke:#cdcdcd;stroke-linecap:round;stroke-linejoin:round;stroke-width:0.09px;fill:url(#linear-gradient);}.cls-3{fill:url(#radial-gradient);}.cls-4{fill:#f4f2f3;}.cls-5{opacity:0.41;}.cls-6{fill:#ff5150;}.cls-7{fill:#f1f1f1;}.cls-8{opacity:0.24;}</style><linearGradient id="linear-gradient" x1="2211.63" y1="-1976.79" x2="2211.63" y2="-1721.98" gradientTransform="matrix(0.35, 0, 0, -0.35, -727.48, -600.35)" gradientUnits="userSpaceOnUse"><stop offset="0" stop-color="#bdbdbd"/><stop offset="1" stop-color="#fff"/></linearGradient><radialGradient id="radial-gradient" cx="1995.63" cy="-1621.01" r="82.13" gradientTransform="matrix(0.55, 0, 0, -0.55, -1043.31, -840.26)" gradientUnits="userSpaceOnUse"><stop offset="0" stop-color="#06c2e7"/><stop offset="0.25" stop-color="#0db8ec"/><stop offset="0.5" stop-color="#12aef1"/><stop offset="0.75" stop-color="#1f86f9"/><stop offset="1" stop-color="#107ddd"/></radialGradient></defs><g id="layer1"><g id="g2858"><path id="path2226" class="cls-1" d="M93.35,53.45C93.35,76.4,73.94,95,50,95S6.65,76.4,6.65,53.45,26.06,11.91,50,11.91,93.35,30.51,93.35,53.45Z"/><path id="path826" class="cls-2" d="M95,49.79A44.89,44.89,0,0,1,50,94.57h0A44.79,44.79,0,1,1,50,5h0A44.9,44.9,0,0,1,95,49.79Z"/><path id="circle828" class="cls-3" d="M91.47,49.79A41.38,41.38,0,0,1,50,91.07h0A41.38,41.38,0,0,1,8.53,49.79h0A41.37,41.37,0,0,1,50,8.51h0A41.37,41.37,0,0,1,91.47,49.79Z"/><path id="rect830" class="cls-4" d="M50,10.66a.6.6,0,0,0-.6.6v7a.6.6,0,0,0,.6.6.6.6,0,0,0,.6-.6v-7A.6.6,0,0,0,50,10.66Zm-4,.25h-.12a.61.61,0,0,0-.54.66l.31,2.91a.59.59,0,0,0,.66.53.6.6,0,0,0,.54-.66l-.3-2.9A.62.62,0,0,0,46,10.91Zm7.94,0a.61.61,0,0,0-.54.54l-.31,2.9a.61.61,0,1,0,1.21.13l.3-2.9a.6.6,0,0,0-.53-.67ZM42,11.5h-.12a.6.6,0,0,0-.47.71L42.84,19A.6.6,0,0,0,44,18.77L42.58,12a.61.61,0,0,0-.6-.47Zm16.07,0a.61.61,0,0,0-.6.48L56,18.77a.61.61,0,0,0,1.19.25l1.44-6.79a.59.59,0,0,0-.46-.71l-.12,0ZM38.1,12.59a.65.65,0,0,0-.24,0,.6.6,0,0,0-.38.76l.9,2.78a.61.61,0,0,0,.76.39.6.6,0,0,0,.39-.76L38.63,13a.6.6,0,0,0-.53-.41Zm23.8,0a.6.6,0,0,0-.52.41l-.91,2.78a.6.6,0,1,0,1.15.37l.91-2.78a.61.61,0,0,0-.39-.76.65.65,0,0,0-.24,0ZM34.27,14A.69.69,0,0,0,34,14a.6.6,0,0,0-.3.8l2.83,6.34a.6.6,0,1,0,1.1-.49l-2.83-6.34A.61.61,0,0,0,34.27,14Zm31.51,0a.61.61,0,0,0-.56.36L62.38,20.7a.6.6,0,1,0,1.1.49l2.84-6.34a.59.59,0,0,0-.3-.79A.71.71,0,0,0,65.78,14ZM30.71,15.86a.55.55,0,0,0-.35.08.59.59,0,0,0-.22.82l1.47,2.53a.62.62,0,0,0,.83.22.61.61,0,0,0,.22-.82l-1.47-2.53a.61.61,0,0,0-.48-.3Zm38.58,0a.61.61,0,0,0-.48.3l-1.47,2.53a.6.6,0,0,0,1,.6l1.47-2.53a.59.59,0,0,0-.22-.82.55.55,0,0,0-.35-.08ZM27.25,18a.61.61,0,0,0-.47,1l4.1,5.62a.59.59,0,0,0,.84.13.61.61,0,0,0,.14-.84l-4.1-5.62a.61.61,0,0,0-.51-.25Zm45.54,0a.62.62,0,0,0-.51.25l-4.1,5.61a.61.61,0,0,0,.13.85.62.62,0,0,0,.85-.14L73.26,19a.59.59,0,0,0-.13-.84.73.73,0,0,0-.34-.12ZM24.16,20.58a.55.55,0,0,0-.43.16.6.6,0,0,0-.05.85l2,2.17a.62.62,0,0,0,.86,0,.59.59,0,0,0,0-.85l-2-2.17a.62.62,0,0,0-.42-.2Zm51.68,0a.6.6,0,0,0-.42.19l-2,2.17a.6.6,0,0,0,.05.85.59.59,0,0,0,.85,0l2-2.17a.59.59,0,0,0,0-.85.61.61,0,0,0-.44-.15ZM21.2,23.41a.66.66,0,0,0-.42.2.6.6,0,0,0,0,.85L26,29.11a.61.61,0,0,0,.86-.05.6.6,0,0,0-.05-.85l-5.18-4.64a.63.63,0,0,0-.44-.16Zm57.62,0a.62.62,0,0,0-.44.16l-5.19,4.64a.61.61,0,0,0,0,.85.59.59,0,0,0,.85,0l5.19-4.64a.6.6,0,0,0,0-.85A.66.66,0,0,0,78.82,23.43ZM18.74,26.56a.61.61,0,0,0-.51.25.59.59,0,0,0,.13.84l2.38,1.72a.6.6,0,0,0,.71-1l-2.38-1.72a.7.7,0,0,0-.33-.12Zm62.54,0a.62.62,0,0,0-.34.11l-2.37,1.72a.6.6,0,1,0,.71,1l2.37-1.72a.6.6,0,0,0,.14-.84.61.61,0,0,0-.51-.24ZM16.44,29.93a.58.58,0,0,0-.48.3.6.6,0,0,0,.22.82l6,3.47a.6.6,0,1,0,.6-1l-6-3.47a.54.54,0,0,0-.34-.08Zm67.12,0a.54.54,0,0,0-.34.08l-6,3.47a.6.6,0,0,0,.6,1l6-3.47a.6.6,0,0,0,.22-.82.58.58,0,0,0-.48-.3ZM14.7,33.51a.61.61,0,0,0-.57.36.6.6,0,0,0,.31.79l2.68,1.19a.6.6,0,1,0,.49-1.1l-2.68-1.19A.59.59,0,0,0,14.7,33.51Zm70.61,0a.53.53,0,0,0-.23.06L82.4,34.77a.6.6,0,1,0,.49,1.1l2.68-1.18a.61.61,0,0,0-.26-1.16ZM13.15,37.25A.61.61,0,0,0,13,38.43l6.63,2.15a.6.6,0,0,0,.76-.39.59.59,0,0,0-.38-.76l-6.63-2.15a1.05,1.05,0,0,0-.24,0Zm73.71,0a.5.5,0,0,0-.24,0L80,39.45a.6.6,0,0,0,.37,1.15L87,38.45a.6.6,0,0,0,.39-.76.62.62,0,0,0-.53-.41Zm-74.68,3.9a.61.61,0,0,0-.59.48.6.6,0,0,0,.46.72l2.87.6a.6.6,0,0,0,.72-.46.59.59,0,0,0-.47-.71L12.3,41.2h-.12Zm75.64,0H87.7l-2.87.61A.6.6,0,1,0,85.08,43L88,42.38a.6.6,0,0,0,.47-.71.61.61,0,0,0-.6-.48Zm-76.37,4a.6.6,0,0,0,0,1.2l6.94.73a.62.62,0,0,0,.67-.54.61.61,0,0,0-.54-.66l-6.94-.73Zm77.11,0h-.13l-6.93.72a.6.6,0,0,0-.54.66.61.61,0,0,0,.66.54l6.94-.72a.6.6,0,0,0,0-1.2Zm-77.23,4a.6.6,0,1,0,0,1.2h2.94a.6.6,0,0,0,0-1.2Zm74.4,0a.6.6,0,0,0,0,1.2h2.94a.6.6,0,0,0,0-1.2ZM18.5,52.47h-.12l-6.94.72a.61.61,0,0,0-.54.66.61.61,0,0,0,.67.54l6.93-.73a.6.6,0,0,0,0-1.19Zm63,0a.63.63,0,0,0-.55.54.61.61,0,0,0,.54.66l6.94.73a.61.61,0,0,0,.66-.54.6.6,0,0,0-.53-.66l-6.94-.73ZM15,56.58h-.12l-2.87.61a.59.59,0,0,0-.47.71.6.6,0,0,0,.72.46l2.87-.6A.6.6,0,0,0,15,56.58Zm69.92,0a.61.61,0,0,0-.6.48.6.6,0,0,0,.47.71l2.87.61a.59.59,0,0,0,.71-.46A.6.6,0,0,0,88,57.2l-2.87-.61ZM19.87,59a.47.47,0,0,0-.23,0L13,61.13a.6.6,0,0,0-.39.75.62.62,0,0,0,.77.39L20,60.12a.6.6,0,0,0,.39-.75.61.61,0,0,0-.53-.42Zm60.25,0a.59.59,0,0,0-.52.42.6.6,0,0,0,.38.76l6.63,2.15a.62.62,0,0,0,.77-.39.6.6,0,0,0-.39-.76L80.36,59a.66.66,0,0,0-.24,0ZM17.34,63.65a.64.64,0,0,0-.23.05l-2.68,1.19a.6.6,0,1,0,.49,1.1L17.6,64.8a.6.6,0,0,0,.31-.79.62.62,0,0,0-.57-.36Zm65.31,0a.62.62,0,0,0-.57.36.61.61,0,0,0,.31.8L85.07,66a.61.61,0,0,0,.8-.31.6.6,0,0,0-.31-.79l-2.68-1.19a.6.6,0,0,0-.23-.06ZM22.56,65a.61.61,0,0,0-.34.08l-6,3.47a.6.6,0,0,0,.6,1l6-3.47a.59.59,0,0,0,.22-.82.58.58,0,0,0-.48-.3Zm54.88,0a.58.58,0,0,0-.48.3.59.59,0,0,0,.22.82l6,3.47a.6.6,0,1,0,.6-1l-6-3.47a.61.61,0,0,0-.34-.08ZM21.06,70.07a.61.61,0,0,0-.34.12L18.35,71.9a.61.61,0,0,0-.14.84.62.62,0,0,0,.85.14l2.37-1.72a.61.61,0,0,0,.14-.84.63.63,0,0,0-.51-.25Zm57.87,0a.62.62,0,0,0-.51.25.59.59,0,0,0,.13.84l2.38,1.72a.61.61,0,0,0,.84-.14.6.6,0,0,0-.13-.84l-2.38-1.71a.58.58,0,0,0-.33-.12Zm-52.5.21a.58.58,0,0,0-.43.15L20.81,75.1a.6.6,0,0,0,0,.85.62.62,0,0,0,.86,0l5.19-4.64a.6.6,0,0,0,0-.85A.62.62,0,0,0,26.43,70.3Zm47.12,0a.62.62,0,0,0-.42.2.6.6,0,0,0,.05.85L78.36,76a.62.62,0,0,0,.86,0,.6.6,0,0,0,0-.85L74,70.47a.61.61,0,0,0-.44-.15Zm-42.2,4.41a.6.6,0,0,0-.51.24l-4.1,5.62a.6.6,0,0,0,.13.84.63.63,0,0,0,.85-.13l4.1-5.62a.59.59,0,0,0-.47-1Zm37.26,0a.61.61,0,0,0-.47,1l4.1,5.62a.61.61,0,0,0,1-.71L69.12,75a.58.58,0,0,0-.51-.25Zm-42.55.87a.58.58,0,0,0-.42.2l-2,2.17a.59.59,0,0,0,0,.85.61.61,0,0,0,.86,0l2-2.17a.6.6,0,0,0-.05-.85.58.58,0,0,0-.43-.15Zm47.88,0a.6.6,0,0,0-.48,1l2,2.18a.61.61,0,0,0,.85,0,.6.6,0,0,0,0-.85l-2-2.17a.66.66,0,0,0-.42-.2ZM37.08,78a.6.6,0,0,0-.56.35l-2.84,6.34a.6.6,0,1,0,1.1.49l2.84-6.33a.6.6,0,0,0-.3-.8.69.69,0,0,0-.24,0Zm25.8,0a.52.52,0,0,0-.24,0,.59.59,0,0,0-.3.79l2.83,6.35a.6.6,0,0,0,.8.3.59.59,0,0,0,.3-.79L63.44,78.4a.58.58,0,0,0-.56-.35ZM32.09,80a.59.59,0,0,0-.48.3l-1.47,2.53a.59.59,0,0,0,.22.82.61.61,0,0,0,.83-.22l1.47-2.53a.6.6,0,0,0-.22-.82.62.62,0,0,0-.35-.08Zm35.82,0a.57.57,0,0,0-.34.08.6.6,0,0,0-.23.82l1.47,2.53a.61.61,0,0,0,.83.22.59.59,0,0,0,.22-.82l-1.47-2.53a.59.59,0,0,0-.48-.3Zm-24.5.09a.6.6,0,0,0-.59.48l-1.45,6.79a.59.59,0,0,0,.46.71.61.61,0,0,0,.72-.46L44,80.81a.61.61,0,0,0-.47-.72Zm13.16,0-.12,0a.59.59,0,0,0-.47.71l1.44,6.79a.6.6,0,0,0,.72.46.59.59,0,0,0,.47-.71l-1.45-6.79a.6.6,0,0,0-.59-.48ZM50,80.77a.6.6,0,0,0-.6.6v6.94a.6.6,0,1,0,1.2,0V81.37A.6.6,0,0,0,50,80.77ZM38.9,83a.6.6,0,0,0-.52.42l-.91,2.77a.6.6,0,0,0,1.15.37l.91-2.77a.6.6,0,0,0-.39-.76.5.5,0,0,0-.24,0Zm22.19,0a.63.63,0,0,0-.23,0,.59.59,0,0,0-.39.76l.9,2.78a.62.62,0,0,0,.77.38.6.6,0,0,0,.38-.76l-.9-2.77a.61.61,0,0,0-.53-.42ZM46.2,84.56a.61.61,0,0,0-.54.54l-.3,2.9a.59.59,0,0,0,.53.66.6.6,0,0,0,.67-.53l.31-2.91a.61.61,0,0,0-.54-.66Zm7.57,0h-.12a.6.6,0,0,0-.54.66l.3,2.91A.61.61,0,0,0,54.62,88l-.31-2.9a.61.61,0,0,0-.54-.54Z"/><path id="path2150" class="cls-5" d="M78.34,25.72,45.26,44.85,24.34,77.62l30.6-22.56Z"/><g id="g2847"><path id="path2096" class="cls-6" d="M54.74,54.73l-9.48-9.88L78.9,22.32Z"/><path id="path2099" class="cls-7" d="M54.74,54.73l-9.48-9.88L21.1,77.25Z"/><path id="path2112" class="cls-8" d="M21.1,77.25,54.74,54.73,78.9,22.32Z"/></g></g></g></svg>