<?xml version="1.0" encoding="UTF-8" standalone="no"?>
<!-- priceZone tool warning Animation -->
<!-- author vihanga nivarthana -->
<svg xmlns="http://www.w3.org/2000/svg" id="pz-warning-Group_822" data-name="Group 822" width="92.771" height="81.9" viewBox="0 0 92.771 81.9">
    <style>
@keyframes pz-warning-a0_t { 0% { transform: translate(46.386002px,40.947495px) rotate(0deg) scale(0.8,0.8) translate(-46.375278px,-40.948507px); } 60% { transform: translate(46.386002px,40.947495px) rotate(0deg) scale(0.8,0.8) translate(-46.375278px,-40.948507px); } 70% { transform: translate(46.386002px,40.947495px) rotate(2deg) scale(0.8,0.8) translate(-46.375278px,-40.948507px); } 80% { transform: translate(46.386002px,40.947495px) rotate(0deg) scale(0.8,0.8) translate(-46.375278px,-40.948507px); } 90% { transform: translate(46.386002px,40.947495px) rotate(-2deg) scale(0.8,0.8) translate(-46.375278px,-40.948507px); } 100% { transform: translate(46.386002px,40.947495px) rotate(0deg) scale(0.8,0.8) translate(-46.375278px,-40.948507px); } }
@keyframes pz-warning-Path_597_t { 0% { transform: translate(46.375278px,40.948507px) scale(0,0) translate(-444.302px,-286.463493px); } 50% { transform: translate(46.375278px,40.948507px) scale(1,1) translate(-444.302px,-286.463493px); } 100% { transform: translate(46.375278px,40.948507px) scale(1,1) translate(-444.302px,-286.463493px); } }
@keyframes pz-warning-Path_597-2_t { 0% { transform: translate(46.375278px,40.948507px) scale(0,0) translate(-444.302px,-286.463493px); } 20% { transform: translate(46.375278px,40.948507px) scale(0,0) translate(-444.302px,-286.463493px); } 50% { transform: translate(46.375278px,40.948507px) scale(1,1) translate(-444.302px,-286.463493px); } 100% { transform: translate(46.375278px,40.948507px) scale(1,1) translate(-444.302px,-286.463493px); } }
@keyframes pz-warning-Path_598_t { 0% { transform: translate(-483.664px,-285.571px); } 50% { transform: translate(-483.664px,-285.571px); } 60% { transform: translate(-483.664px,-301.571px); } 100% { transform: translate(-483.664px,-301.571px); } }
@keyframes pz-warning-Path_598_o { 0% { opacity: 0; } 50% { opacity: 0; } 60% { opacity: 1; } 100% { opacity: 1; } }
@keyframes pz-warning-Ellipse_72_t { 0% { transform: translate(4.168px,46.196px); } 60% { transform: translate(4.168px,46.196px); } 70% { transform: translate(4.168px,38.196px); } 100% { transform: translate(4.168px,38.196px); } }
@keyframes pz-warning-Ellipse_72_o { 0% { opacity: 0; } 60% { opacity: 0; } 70% { opacity: 1; } 100% { opacity: 1; } }
    </style>
    <g transform="translate(46.386,40.9475) scale(0.8,0.8) translate(-46.3753,-40.9485)" style="animation: 1s linear both pz-warning-a0_t;">
        <path id="pz-warning-Path_597" data-name="Path 597" d="M449.385,248.45L489.893,318.612C490.94,320.428,490.939,322.664,489.89,324.479C488.842,326.293,486.906,327.411,484.81,327.412L403.794,327.412C401.698,327.411,399.762,326.293,398.714,324.479C397.665,322.664,397.664,320.428,398.711,318.612L439.219,248.45C440.267,246.634,442.205,245.515,444.302,245.515C446.399,245.515,448.337,246.634,449.385,248.45Z" fill="#ffc107" opacity="0.6" transform="translate(46.3753,40.9485) scale(0,0) translate(-444.302,-286.463)" style="isolation: isolate; animation: 1s linear both pz-warning-Path_597_t;"/>
        <path id="pz-warning-Path_597-2" data-name="Path 597" d="M449.385,248.45L489.893,318.612C490.94,320.428,490.939,322.664,489.89,324.479C488.842,326.293,486.906,327.411,484.81,327.412L403.794,327.412C401.698,327.411,399.762,326.293,398.714,324.479C397.665,322.664,397.664,320.428,398.711,318.612L439.219,248.45C440.267,246.634,442.205,245.515,444.302,245.515C446.399,245.515,448.337,246.634,449.385,248.45Z" fill="#ffc107" transform="translate(46.3753,40.9485) scale(0,0) translate(-444.302,-286.463)" style="isolation: isolate; animation: 1s linear both pz-warning-Path_597-2_t;"/>
        <g id="pz-warning-Group_821" data-name="Group 821" transform="translate(46.3749,48.3826) translate(-4.16862,-20.7835)">
            <path id="pz-warning-Path_598" data-name="Path 598" d="M487.932,332.111L487.28,332.111C485.859,332.158,484.654,331.074,484.552,329.655L483.665,304.193C483.668,303.48,483.959,302.798,484.473,302.304C484.988,301.81,485.68,301.546,486.393,301.572L489.272,301.572C489.992,301.545,490.692,301.814,491.208,302.317C491.723,302.82,492.01,303.513,492,304.234L490.66,329.696C490.536,331.098,489.338,332.158,487.932,332.111Z" fill="#5d4037" opacity="0" transform="translate(4.16862,31.2703) translate(-487.833,-316.841)" style="isolation: isolate; animation: 1s linear both pz-warning-Path_598_t, 1s linear both pz-warning-Path_598_o;"/>
            <ellipse id="pz-warning-Ellipse_72" data-name="Ellipse 72" rx="3.602" ry="3.372" fill="#5d4037" opacity="0" transform="translate(0.566,42.824) translate(3.602,3.372)" style="animation: 1s linear both pz-warning-Ellipse_72_t, 1s linear both pz-warning-Ellipse_72_o;"/>
        </g>
    </g>
</svg>
